<?xml version="1.0" encoding="utf-8"?>
<!-- Generator: Adobe Illustrator 27.5.0, SVG Export Plug-In . SVG Version: 6.00 Build 0)  -->
<svg version="1.1" xmlns="http://www.w3.org/2000/svg" xmlns:xlink="http://www.w3.org/1999/xlink" x="0px" y="0px"
	 viewBox="0 0 750 500" style="enable-background:new 0 0 750 500;" xml:space="preserve">
<g id="Background_Simple">
	<g>
		<path style="fill:#92E3A9;" d="M591.432,66.686c-71.715-9.338-112.469,30.438-208.843,34.763
			c-95.753-7.502-132.261-48.555-204.832-41.603C99.679,67.326,39.204,169.072,56.412,270.849S180.27,429.521,234.794,429.169
			c43.574-0.281,82.067-18.017,131.753-22.255c49.155,5.872,85.719,24.849,129.189,26.569
			c54.392,2.152,166.827-51.12,194.688-152.152C718.283,180.299,668.591,76.732,591.432,66.686z"/>
		<path style="opacity:0.7;fill:#FFFFFF;" d="M591.432,66.686c-71.715-9.338-112.469,30.438-208.843,34.763
			c-95.753-7.502-132.261-48.555-204.832-41.603C99.679,67.326,39.204,169.072,56.412,270.849S180.27,429.521,234.794,429.169
			c43.574-0.281,82.067-18.017,131.753-22.255c49.155,5.872,85.719,24.849,129.189,26.569
			c54.392,2.152,166.827-51.12,194.688-152.152C718.283,180.299,668.591,76.732,591.432,66.686z"/>
	</g>
</g>
<g id="Plants">
	<g>
		<g>
			<path style="fill:#263238;" d="M92.236,340.203c-5.999,1.036-11.566,2.356-17.318-0.46c-4.55-2.228-8.862-6.727-5.494-11.863
				c4.56-6.951,15.866-2.666,21.119,1.31c3.223,2.439,7.36,5.993,9.881,8.198c-2.037-2.977-3.832-5.37-5.035-6.92
				c0.003,0.02,0.004,0.031,0.004,0.031c-0.002-0.014-0.012-0.031-0.015-0.045c-0.585-0.754-1.033-1.312-1.296-1.635
				c-2.126-1.777-6.18-3.815-7.22-4.421c-5.261-3.063-10.373-5.631-12.968-11.486c-2.053-4.633-2.463-10.851,3.42-12.619
				c7.961-2.393,13.866,8.159,15.333,14.582c1.033,4.521,2.048,10.957,2.501,13.96c1.211,1.517,3.843,4.917,6.866,9.44
				c0.121-2.742-0.894-7.428-1.081-8.658c-0.919-6.018-2.13-11.609,0.799-17.305c2.317-4.506,6.899-8.729,11.968-5.261
				c6.861,4.695,2.355,15.915-1.723,21.089c-2.954,3.749-7.491,8.747-9.461,10.891c2.745,4.163,5.757,9.192,8.295,14.548
				c0.139,0.293,0.276,0.601,0.413,0.911c0.814-2.609,0.987-7.487,1.109-8.737c0.591-6.06,0.794-11.776,5.035-16.576
				c3.355-3.797,8.836-6.762,12.895-2.152c5.494,6.239-1.635,16.004-6.862,20.016c-3.779,2.901-9.4,6.625-11.845,8.223
				c1.085,2.584,2.133,5.675,3.312,9.162c1.186,3.51,2.505,7.407,4.114,11.505c0.014,0.009,0.024,0.015,0.037,0.024
				c1.586-1.048,1.823-8.68,1.98-10.29c0.591-6.059,0.794-11.776,5.035-16.576c3.355-3.797,8.836-6.762,12.895-2.152
				c5.494,6.239-1.635,16.005-6.862,20.016c-4.876,3.743-12.822,8.858-13.046,9.003c0.148,0.094,0.247,0.157,0.248,0.158
				c-0.071-0.046-0.165-0.074-0.257-0.104c1.761,4.477,3.88,9.192,6.555,13.908c1.679-1.649,3.529-7.66,4.044-9.017
				c2.16-5.692,3.855-11.156,9.207-14.674c4.234-2.784,10.3-4.207,13.008,1.306c3.665,7.462-5.777,15.015-11.873,17.515
				c-4.83,1.981-12.057,4.337-14.283,5.052c2.83,4.963,6.289,9.92,10.618,14.598c1.61-1.953,3.309-7.458,3.799-8.749
				c2.16-5.692,3.855-11.156,9.207-14.674c4.233-2.784,10.3-4.207,13.008,1.306c3.665,7.462-5.777,15.015-11.873,17.515
				c-4.553,1.867-11.236,4.068-13.853,4.913c5.188,5.542,11.606,10.68,19.686,14.941l-0.383,0.724
				c-8.126-4.286-14.587-9.443-19.813-15.002c-2.087,0.387-6.644,5.594-7.725,6.678c-4.299,4.31-8.081,8.602-14.404,9.624
				c-5.002,0.808-11.12-0.375-11.336-6.513c-0.291-8.308,11.413-11.338,17.999-11.126c5.472,0.176,13.518,1.055,15.402,1.267
				c-0.098-0.105-0.196-0.21-0.293-0.315c-0.156,0.05-0.241,0.077-0.242,0.077c0.069-0.022,0.14-0.071,0.21-0.112
				c-4.393-4.747-7.897-9.776-10.759-14.807c-2.286,0.295-7.375,4.21-8.594,5.029c-5.053,3.395-9.596,6.873-15.996,6.649
				c-5.064-0.177-10.837-2.524-9.858-8.587c1.325-8.207,13.395-8.91,19.814-7.425c5.04,1.166,12.212,3.392,14.511,4.117
				c-2.748-4.862-4.906-9.716-6.698-14.313c-2.581,0.091-7.732,2.245-9.015,2.689c-5.754,1.99-11.034,4.191-17.165,2.339
				c-4.85-1.465-9.832-5.21-7.335-10.822c3.378-7.596,15.228-5.19,21.054-2.113c4.087,2.158,9.6,5.568,12.183,7.19
				c-1.433-3.731-2.636-7.282-3.726-10.507c-1.153-3.411-2.18-6.44-3.233-8.97c-0.326,0.211-0.512,0.331-0.514,0.332
				c0.16-0.103,0.304-0.289,0.438-0.513c-0.018-0.043-0.037-0.087-0.055-0.131c-2.297-0.138-8.031,2.776-9.382,3.356
				c-5.593,2.404-10.7,4.983-16.949,3.582c-4.944-1.108-10.184-4.48-8.103-10.259c2.817-7.821,14.81-6.285,20.844-3.64
				c4.728,2.072,11.347,5.573,13.488,6.717c-0.183-0.426-0.368-0.84-0.555-1.233c-2.486-5.246-5.431-10.177-8.127-14.279
				c-0.249,0.27-0.402,0.434-0.403,0.435c0.129-0.138,0.221-0.351,0.296-0.598c-0.109-0.165-0.218-0.331-0.326-0.493
				C98.926,338.696,93.563,339.974,92.236,340.203z"/>
			<path style="opacity:0.5;fill:#263238;" d="M92.236,340.203c-5.999,1.036-11.566,2.356-17.318-0.46
				c-4.55-2.228-8.862-6.727-5.494-11.863c4.56-6.951,15.866-2.666,21.119,1.31c3.223,2.439,7.36,5.993,9.881,8.198
				c-2.037-2.977-3.832-5.37-5.035-6.92c0.003,0.02,0.004,0.031,0.004,0.031c-0.002-0.014-0.012-0.031-0.015-0.045
				c-0.585-0.754-1.033-1.312-1.296-1.635c-2.126-1.777-6.18-3.815-7.22-4.421c-5.261-3.063-10.373-5.631-12.968-11.486
				c-2.053-4.633-2.463-10.851,3.42-12.619c7.961-2.393,13.866,8.159,15.333,14.582c1.033,4.521,2.048,10.957,2.501,13.96
				c1.211,1.517,3.843,4.917,6.866,9.44c0.121-2.742-0.894-7.428-1.081-8.658c-0.919-6.018-2.13-11.609,0.799-17.305
				c2.317-4.506,6.899-8.729,11.968-5.261c6.861,4.695,2.355,15.915-1.723,21.089c-2.954,3.749-7.491,8.747-9.461,10.891
				c2.745,4.163,5.757,9.192,8.295,14.548c0.139,0.293,0.276,0.601,0.413,0.911c0.814-2.609,0.987-7.487,1.109-8.737
				c0.591-6.06,0.794-11.776,5.035-16.576c3.355-3.797,8.836-6.762,12.895-2.152c5.494,6.239-1.635,16.004-6.862,20.016
				c-3.779,2.901-9.4,6.625-11.845,8.223c1.085,2.584,2.133,5.675,3.312,9.162c1.186,3.51,2.505,7.407,4.114,11.505
				c0.014,0.009,0.024,0.015,0.037,0.024c1.586-1.048,1.823-8.68,1.98-10.29c0.591-6.059,0.794-11.776,5.035-16.576
				c3.355-3.797,8.836-6.762,12.895-2.152c5.494,6.239-1.635,16.005-6.862,20.016c-4.876,3.743-12.822,8.858-13.046,9.003
				c0.148,0.094,0.247,0.157,0.248,0.158c-0.071-0.046-0.165-0.074-0.257-0.104c1.761,4.477,3.88,9.192,6.555,13.908
				c1.679-1.649,3.529-7.66,4.044-9.017c2.16-5.692,3.855-11.156,9.207-14.674c4.234-2.784,10.3-4.207,13.008,1.306
				c3.665,7.462-5.777,15.015-11.873,17.515c-4.83,1.981-12.057,4.337-14.283,5.052c2.83,4.963,6.289,9.92,10.618,14.598
				c1.61-1.953,3.309-7.458,3.799-8.749c2.16-5.692,3.855-11.156,9.207-14.674c4.233-2.784,10.3-4.207,13.008,1.306
				c3.665,7.462-5.777,15.015-11.873,17.515c-4.553,1.867-11.236,4.068-13.853,4.913c5.188,5.542,11.606,10.68,19.686,14.941
				l-0.383,0.724c-8.126-4.286-14.587-9.443-19.813-15.002c-2.087,0.387-6.644,5.594-7.725,6.678
				c-4.299,4.31-8.081,8.602-14.404,9.624c-5.002,0.808-11.12-0.375-11.336-6.513c-0.291-8.308,11.413-11.338,17.999-11.126
				c5.472,0.176,13.518,1.055,15.402,1.267c-0.098-0.105-0.196-0.21-0.293-0.315c-0.156,0.05-0.241,0.077-0.242,0.077
				c0.069-0.022,0.14-0.071,0.21-0.112c-4.393-4.747-7.897-9.776-10.759-14.807c-2.286,0.295-7.375,4.21-8.594,5.029
				c-5.053,3.395-9.596,6.873-15.996,6.649c-5.064-0.177-10.837-2.524-9.858-8.587c1.325-8.207,13.395-8.91,19.814-7.425
				c5.04,1.166,12.212,3.392,14.511,4.117c-2.748-4.862-4.906-9.716-6.698-14.313c-2.581,0.091-7.732,2.245-9.015,2.689
				c-5.754,1.99-11.034,4.191-17.165,2.339c-4.85-1.465-9.832-5.21-7.335-10.822c3.378-7.596,15.228-5.19,21.054-2.113
				c4.087,2.158,9.6,5.568,12.183,7.19c-1.433-3.731-2.636-7.282-3.726-10.507c-1.153-3.411-2.18-6.44-3.233-8.97
				c-0.326,0.211-0.512,0.331-0.514,0.332c0.16-0.103,0.304-0.289,0.438-0.513c-0.018-0.043-0.037-0.087-0.055-0.131
				c-2.297-0.138-8.031,2.776-9.382,3.356c-5.593,2.404-10.7,4.983-16.949,3.582c-4.944-1.108-10.184-4.48-8.103-10.259
				c2.817-7.821,14.81-6.285,20.844-3.64c4.728,2.072,11.347,5.573,13.488,6.717c-0.183-0.426-0.368-0.84-0.555-1.233
				c-2.486-5.246-5.431-10.177-8.127-14.279c-0.249,0.27-0.402,0.434-0.403,0.435c0.129-0.138,0.221-0.351,0.296-0.598
				c-0.109-0.165-0.218-0.331-0.326-0.493C98.926,338.696,93.563,339.974,92.236,340.203z"/>
		</g>
		<g>
			<path style="fill:#263238;" d="M682.108,185.826c-2.313-6.531-4.862-12.522-2.806-19.515c1.627-5.532,5.847-11.232,12.254-8.439
				c8.672,3.781,6.034,17.286,2.582,23.943c-2.118,4.083-5.31,9.406-7.301,12.657c2.949-2.856,5.289-5.329,6.797-6.977
				c-0.022,0.007-0.034,0.011-0.034,0.011c0.016-0.005,0.032-0.02,0.048-0.026c0.733-0.801,1.273-1.411,1.585-1.767
				c1.586-2.726,3.094-7.665,3.574-8.948c2.427-6.49,4.326-12.717,10.397-16.751c4.803-3.191,11.7-4.844,14.812,1.415
				c4.211,8.472-6.492,17.12-13.416,19.998c-4.874,2.026-11.899,4.4-15.18,5.483c-1.469,1.649-4.779,5.255-9.273,9.514
				c3.099-0.391,8.162-2.428,9.505-2.874c6.575-2.185,12.615-4.617,19.566-2.424c5.499,1.734,11.116,6.065,8.197,12.417
				c-3.95,8.597-17.401,5.695-23.989,2.113c-4.772-2.595-11.25-6.725-14.033-8.524c-4.144,3.878-9.207,8.222-14.729,12.097
				c-0.302,0.212-0.621,0.425-0.943,0.638c3.083,0.412,8.588-0.329,10.014-0.432c6.911-0.499,13.363-1.368,19.56,2.468
				c4.903,3.035,9.281,8.615,4.888,14.053c-5.945,7.359-18.268,1.235-23.77-3.858c-3.979-3.683-9.235-9.274-11.497-11.711
				c-2.69,1.713-5.957,3.481-9.643,5.473c-3.71,2.004-7.829,4.231-12.117,6.822c-0.007,0.018-0.012,0.03-0.019,0.046
				c1.479,1.578,10.087,0.38,11.923,0.247c6.911-0.499,13.363-1.368,19.56,2.468c4.903,3.035,9.281,8.615,4.888,14.053
				c-5.945,7.36-18.268,1.236-23.77-3.858c-5.134-4.752-12.397-12.684-12.602-12.908c-0.077,0.183-0.129,0.307-0.13,0.309
				c0.037-0.088,0.051-0.199,0.068-0.308c-4.684,2.835-9.567,6.116-14.345,10.021c2.172,1.567,9.27,2.489,10.892,2.807
				c6.799,1.332,13.254,2.185,18.228,7.513c3.935,4.215,6.695,10.748,1.03,14.843c-7.668,5.542-17.952-3.6-21.926-9.959
				c-3.149-5.038-7.178-12.694-8.407-15.054c-5.025,4.127-9.921,8.958-14.339,14.711c2.5,1.432,9.001,2.281,10.543,2.583
				c6.799,1.332,13.254,2.185,18.228,7.513c3.935,4.215,6.695,10.748,1.03,14.843c-7.668,5.542-17.952-3.6-21.926-9.959
				c-2.968-4.75-6.719-11.825-8.169-14.597c-5.221,6.883-9.754,15.068-12.985,24.95l-0.886-0.29
				c3.249-9.938,7.795-18.175,13.029-25.104c-0.834-2.267-7.55-6.38-8.973-7.385c-5.66-3.996-11.201-7.415-13.56-14.312
				c-1.867-5.456-1.713-12.546,5.132-13.966c9.264-1.921,14.909,10.628,15.934,18.056c0.852,6.172,1.41,15.367,1.534,17.521
				c0.099-0.13,0.198-0.26,0.297-0.39c-0.086-0.166-0.132-0.256-0.133-0.257c0.038,0.073,0.107,0.143,0.166,0.214
				c4.482-5.839,9.451-10.734,14.547-14.91c-0.77-2.508-6.138-7.465-7.291-8.676c-4.778-5.018-9.55-9.446-10.528-16.669
				c-0.773-5.715,0.752-12.641,7.742-12.706c9.461-0.088,12.565,13.317,12.131,20.803c-0.341,5.878-1.463,14.35-1.835,17.068
				c4.926-4.015,9.958-7.368,14.771-10.26c-0.597-2.878-4.002-8.243-4.746-9.597c-3.336-6.072-6.818-11.574-5.917-18.807
				c0.713-5.722,3.958-12.028,10.733-10.305c9.169,2.333,8.743,16.087,6.41,23.213c-1.637,4.999-4.404,11.838-5.728,15.046
				c3.911-2.324,7.664-4.354,11.072-6.196c3.606-1.947,6.806-3.68,9.442-5.347c-0.3-0.325-0.47-0.511-0.471-0.512
				c0.147,0.16,0.382,0.285,0.66,0.393c0.045-0.029,0.091-0.058,0.136-0.087c-0.285-2.603-4.654-8.476-5.565-9.88
				c-3.77-5.813-7.643-11.047-7.27-18.326c0.295-5.759,3.072-12.284,9.954-11.059c9.314,1.66,9.891,15.408,8.082,22.685
				c-1.417,5.701-4.075,13.799-4.948,16.419c0.443-0.288,0.871-0.574,1.277-0.859c5.408-3.795,10.375-8.045,14.459-11.856
				c-0.351-0.228-0.564-0.368-0.566-0.369c0.18,0.118,0.436,0.181,0.728,0.217c0.164-0.154,0.329-0.308,0.49-0.46
				C685.083,193.041,682.62,187.27,682.108,185.826z"/>
			<path style="opacity:0.5;fill:#263238;" d="M682.108,185.826c-2.313-6.531-4.862-12.522-2.806-19.515
				c1.627-5.532,5.847-11.232,12.254-8.439c8.672,3.781,6.034,17.286,2.582,23.943c-2.118,4.083-5.31,9.406-7.301,12.657
				c2.949-2.856,5.289-5.329,6.797-6.977c-0.022,0.007-0.034,0.011-0.034,0.011c0.016-0.005,0.032-0.02,0.048-0.026
				c0.733-0.801,1.273-1.411,1.585-1.767c1.586-2.726,3.094-7.665,3.574-8.948c2.427-6.49,4.326-12.717,10.397-16.751
				c4.803-3.191,11.7-4.844,14.812,1.415c4.211,8.472-6.492,17.12-13.416,19.998c-4.874,2.026-11.899,4.4-15.18,5.483
				c-1.469,1.649-4.779,5.255-9.273,9.514c3.099-0.391,8.162-2.428,9.505-2.874c6.575-2.185,12.615-4.617,19.566-2.424
				c5.499,1.734,11.116,6.065,8.197,12.417c-3.95,8.597-17.401,5.695-23.989,2.113c-4.772-2.595-11.25-6.725-14.033-8.524
				c-4.144,3.878-9.207,8.222-14.729,12.097c-0.302,0.212-0.621,0.425-0.943,0.638c3.083,0.412,8.588-0.329,10.014-0.432
				c6.911-0.499,13.363-1.368,19.56,2.468c4.903,3.035,9.281,8.615,4.888,14.053c-5.945,7.359-18.268,1.235-23.77-3.858
				c-3.979-3.683-9.235-9.274-11.497-11.711c-2.69,1.713-5.957,3.481-9.643,5.473c-3.71,2.004-7.829,4.231-12.117,6.822
				c-0.007,0.018-0.012,0.03-0.019,0.046c1.479,1.578,10.087,0.38,11.923,0.247c6.911-0.499,13.363-1.368,19.56,2.468
				c4.903,3.035,9.281,8.615,4.888,14.053c-5.945,7.36-18.268,1.236-23.77-3.858c-5.134-4.752-12.397-12.684-12.602-12.908
				c-0.077,0.183-0.129,0.307-0.13,0.309c0.037-0.088,0.051-0.199,0.068-0.308c-4.684,2.835-9.567,6.116-14.345,10.021
				c2.172,1.567,9.27,2.489,10.892,2.807c6.799,1.332,13.254,2.185,18.228,7.513c3.935,4.215,6.695,10.748,1.03,14.843
				c-7.668,5.542-17.952-3.6-21.926-9.959c-3.149-5.038-7.178-12.694-8.407-15.054c-5.025,4.127-9.921,8.958-14.339,14.711
				c2.5,1.432,9.001,2.281,10.543,2.583c6.799,1.332,13.254,2.185,18.228,7.513c3.935,4.215,6.695,10.748,1.03,14.843
				c-7.668,5.542-17.952-3.6-21.926-9.959c-2.968-4.75-6.719-11.825-8.169-14.597c-5.221,6.883-9.754,15.068-12.985,24.95
				l-0.886-0.29c3.249-9.938,7.795-18.175,13.029-25.104c-0.834-2.267-7.55-6.38-8.973-7.385c-5.66-3.996-11.201-7.415-13.56-14.312
				c-1.867-5.456-1.713-12.546,5.132-13.966c9.264-1.921,14.909,10.628,15.934,18.056c0.852,6.172,1.41,15.367,1.534,17.521
				c0.099-0.13,0.198-0.26,0.297-0.39c-0.086-0.166-0.132-0.256-0.133-0.257c0.038,0.073,0.107,0.143,0.166,0.214
				c4.482-5.839,9.451-10.734,14.547-14.91c-0.77-2.508-6.138-7.465-7.291-8.676c-4.778-5.018-9.55-9.446-10.528-16.669
				c-0.773-5.715,0.752-12.641,7.742-12.706c9.461-0.088,12.565,13.317,12.131,20.803c-0.341,5.878-1.463,14.35-1.835,17.068
				c4.926-4.015,9.958-7.368,14.771-10.26c-0.597-2.878-4.002-8.243-4.746-9.597c-3.336-6.072-6.818-11.574-5.917-18.807
				c0.713-5.722,3.958-12.028,10.733-10.305c9.169,2.333,8.743,16.087,6.41,23.213c-1.637,4.999-4.404,11.838-5.728,15.046
				c3.911-2.324,7.664-4.354,11.072-6.196c3.606-1.947,6.806-3.68,9.442-5.347c-0.3-0.325-0.47-0.511-0.471-0.512
				c0.147,0.16,0.382,0.285,0.66,0.393c0.045-0.029,0.091-0.058,0.136-0.087c-0.285-2.603-4.654-8.476-5.565-9.88
				c-3.77-5.813-7.643-11.047-7.27-18.326c0.295-5.759,3.072-12.284,9.954-11.059c9.314,1.66,9.891,15.408,8.082,22.685
				c-1.417,5.701-4.075,13.799-4.948,16.419c0.443-0.288,0.871-0.574,1.277-0.859c5.408-3.795,10.375-8.045,14.459-11.856
				c-0.351-0.228-0.564-0.368-0.566-0.369c0.18,0.118,0.436,0.181,0.728,0.217c0.164-0.154,0.329-0.308,0.49-0.46
				C685.083,193.041,682.62,187.27,682.108,185.826z"/>
		</g>
		<g>
			<path style="fill:#263238;" d="M614.997,72.571c-6.299-2.886-12.374-5.227-15.962-11.572c-2.839-5.019-3.993-12.017,2.474-14.672
				c8.752-3.593,16.61,7.703,18.985,14.815c1.457,4.363,3.056,10.361,4.003,14.053c0.002-4.105-0.143-7.506-0.276-9.736
				c-0.01,0.02-0.016,0.032-0.016,0.032c0.007-0.015,0.008-0.037,0.015-0.052c-0.065-1.084-0.126-1.896-0.165-2.368
				c-0.853-3.036-3.348-7.557-3.935-8.795c-2.969-6.26-6.117-11.959-4.786-19.126c1.053-5.67,4.668-11.771,11.328-9.648
				c9.013,2.875,7.77,16.579,5.016,23.553c-1.938,4.909-5.125,11.605-6.632,14.715c0.161,2.202,0.445,7.089,0.374,13.28
				c1.877-2.497,3.939-7.549,4.554-8.824c3.009-6.241,5.468-12.27,11.882-15.733c5.074-2.74,12.092-3.757,14.621,2.76
				c3.421,8.821-8.026,16.457-15.183,18.692c-5.185,1.619-12.66,3.394-15.889,4.139c-0.101,5.675-0.508,12.333-1.57,18.995
				c-0.058,0.365-0.127,0.742-0.198,1.121c2.442-1.926,5.742-6.394,6.661-7.489c4.453-5.309,8.321-10.546,15.39-12.323
				c5.592-1.407,12.646-0.664,13.491,6.275c1.144,9.391-11.831,13.974-19.318,14.378c-5.414,0.292-13.087,0.173-16.41,0.1
				c-0.643,3.124-1.648,6.7-2.784,10.732c-1.144,4.059-2.414,8.566-3.538,13.448c0.008,0.017,0.013,0.03,0.02,0.046
				c2.163,0.037,7.295-6.977,8.478-8.387c4.453-5.308,8.321-10.545,15.39-12.323c5.592-1.406,12.646-0.664,13.491,6.275
				c1.144,9.392-11.831,13.974-19.318,14.378c-6.986,0.377-17.736,0.069-18.039,0.06c0.078,0.183,0.131,0.307,0.131,0.308
				c-0.037-0.088-0.107-0.176-0.174-0.263c-1.226,5.336-2.27,11.125-2.793,17.274c2.638-0.468,8.241-4.922,9.597-5.865
				c5.689-3.954,10.796-7.993,18.083-7.855c5.765,0.11,12.377,2.676,11.372,9.594c-1.36,9.363-15.082,10.381-22.413,8.807
				c-5.809-1.247-14.11-3.684-16.66-4.445c-0.536,6.48-0.477,13.359,0.578,20.535c2.768-0.798,7.904-4.873,9.194-5.77
				c5.689-3.954,10.796-7.993,18.083-7.855c5.765,0.11,12.377,2.676,11.372,9.594c-1.359,9.363-15.082,10.381-22.413,8.807
				c-5.476-1.176-13.166-3.409-16.166-4.298c1.306,8.54,4.026,17.492,8.871,26.691l-0.825,0.434
				c-4.873-9.251-7.62-18.248-8.951-26.83c-2.208-0.98-9.836,0.978-11.549,1.3c-6.809,1.281-13.121,2.878-19.714-0.23
				c-5.216-2.459-10.199-7.505-6.453-13.407c5.071-7.987,18.009-3.303,24.055,1.132c5.023,3.685,12.013,9.686,13.645,11.097
				c-0.025-0.162-0.049-0.323-0.073-0.485c-0.179-0.054-0.276-0.083-0.277-0.084c0.079,0.024,0.177,0.023,0.27,0.03
				c-1.071-7.283-1.126-14.258-0.576-20.823c-2.336-1.194-9.632-0.791-11.304-0.806c-6.928-0.063-13.43,0.28-19.295-4.047
				c-4.641-3.423-8.551-9.34-3.732-14.404c6.523-6.853,18.308,0.251,23.379,5.774c3.982,4.337,9.283,11.04,10.975,13.2
				c0.547-6.332,1.644-12.278,2.918-17.746c-2.482-1.575-8.704-2.866-10.193-3.275c-6.682-1.833-13.055-3.163-17.62-8.845
				c-3.611-4.496-5.879-11.215,0.074-14.879c8.058-4.958,17.635,4.923,21.126,11.559c2.449,4.656,5.432,11.403,6.813,14.587
				c1.055-4.425,2.21-8.533,3.261-12.262c1.112-3.944,2.096-7.448,2.735-10.501c-0.442-0.011-0.694-0.019-0.696-0.019
				c0.217,0.006,0.471-0.076,0.742-0.2c0.011-0.052,0.022-0.106,0.033-0.158c-2.067-1.607-9.325-2.56-10.967-2.884
				c-6.798-1.341-13.251-2.204-18.217-7.54c-3.929-4.221-6.68-10.758-1.008-14.845c7.676-5.531,17.947,3.626,21.911,9.991
				c3.106,4.987,7.069,12.531,8.342,14.983c0.102-0.518,0.195-1.025,0.273-1.515c1.041-6.524,1.448-13.049,1.555-18.634
				c-0.408,0.093-0.657,0.149-0.659,0.149c0.21-0.047,0.434-0.187,0.663-0.371c0.004-0.225,0.008-0.451,0.011-0.672
				C622.247,75.458,616.39,73.209,614.997,72.571z"/>
			<path style="opacity:0.5;fill:#263238;" d="M614.997,72.571c-6.299-2.886-12.374-5.227-15.962-11.572
				c-2.839-5.019-3.993-12.017,2.474-14.672c8.752-3.593,16.61,7.703,18.985,14.815c1.457,4.363,3.056,10.361,4.003,14.053
				c0.002-4.105-0.143-7.506-0.276-9.736c-0.01,0.02-0.016,0.032-0.016,0.032c0.007-0.015,0.008-0.037,0.015-0.052
				c-0.065-1.084-0.126-1.896-0.165-2.368c-0.853-3.036-3.348-7.557-3.935-8.795c-2.969-6.26-6.117-11.959-4.786-19.126
				c1.053-5.67,4.668-11.771,11.328-9.648c9.013,2.875,7.77,16.579,5.016,23.553c-1.938,4.909-5.125,11.605-6.632,14.715
				c0.161,2.202,0.445,7.089,0.374,13.28c1.877-2.497,3.939-7.549,4.554-8.824c3.009-6.241,5.468-12.27,11.882-15.733
				c5.074-2.74,12.092-3.757,14.621,2.76c3.421,8.821-8.026,16.457-15.183,18.692c-5.185,1.619-12.66,3.394-15.889,4.139
				c-0.101,5.675-0.508,12.333-1.57,18.995c-0.058,0.365-0.127,0.742-0.198,1.121c2.442-1.926,5.742-6.394,6.661-7.489
				c4.453-5.309,8.321-10.546,15.39-12.323c5.592-1.407,12.646-0.664,13.491,6.275c1.144,9.391-11.831,13.974-19.318,14.378
				c-5.414,0.292-13.087,0.173-16.41,0.1c-0.643,3.124-1.648,6.7-2.784,10.732c-1.144,4.059-2.414,8.566-3.538,13.448
				c0.008,0.017,0.013,0.03,0.02,0.046c2.163,0.037,7.295-6.977,8.478-8.387c4.453-5.308,8.321-10.545,15.39-12.323
				c5.592-1.406,12.646-0.664,13.491,6.275c1.144,9.392-11.831,13.974-19.318,14.378c-6.986,0.377-17.736,0.069-18.039,0.06
				c0.078,0.183,0.131,0.307,0.131,0.308c-0.037-0.088-0.107-0.176-0.174-0.263c-1.226,5.336-2.27,11.125-2.793,17.274
				c2.638-0.468,8.241-4.922,9.597-5.865c5.689-3.954,10.796-7.993,18.083-7.855c5.765,0.11,12.377,2.676,11.372,9.594
				c-1.36,9.363-15.082,10.381-22.413,8.807c-5.809-1.247-14.11-3.684-16.66-4.445c-0.536,6.48-0.477,13.359,0.578,20.535
				c2.768-0.798,7.904-4.873,9.194-5.77c5.689-3.954,10.796-7.993,18.083-7.855c5.765,0.11,12.377,2.676,11.372,9.594
				c-1.359,9.363-15.082,10.381-22.413,8.807c-5.476-1.176-13.166-3.409-16.166-4.298c1.306,8.54,4.026,17.492,8.871,26.691
				l-0.825,0.434c-4.873-9.251-7.62-18.248-8.951-26.83c-2.208-0.98-9.836,0.978-11.549,1.3c-6.809,1.281-13.121,2.878-19.714-0.23
				c-5.216-2.459-10.199-7.505-6.453-13.407c5.071-7.987,18.009-3.303,24.055,1.132c5.023,3.685,12.013,9.686,13.645,11.097
				c-0.025-0.162-0.049-0.323-0.073-0.485c-0.179-0.054-0.276-0.083-0.277-0.084c0.079,0.024,0.177,0.023,0.27,0.03
				c-1.071-7.283-1.126-14.258-0.576-20.823c-2.336-1.194-9.632-0.791-11.304-0.806c-6.928-0.063-13.43,0.28-19.295-4.047
				c-4.641-3.423-8.551-9.34-3.732-14.404c6.523-6.853,18.308,0.251,23.379,5.774c3.982,4.337,9.283,11.04,10.975,13.2
				c0.547-6.332,1.644-12.278,2.918-17.746c-2.482-1.575-8.704-2.866-10.193-3.275c-6.682-1.833-13.055-3.163-17.62-8.845
				c-3.611-4.496-5.879-11.215,0.074-14.879c8.058-4.958,17.635,4.923,21.126,11.559c2.449,4.656,5.432,11.403,6.813,14.587
				c1.055-4.425,2.21-8.533,3.261-12.262c1.112-3.944,2.096-7.448,2.735-10.501c-0.442-0.011-0.694-0.019-0.696-0.019
				c0.217,0.006,0.471-0.076,0.742-0.2c0.011-0.052,0.022-0.106,0.033-0.158c-2.067-1.607-9.325-2.56-10.967-2.884
				c-6.798-1.341-13.251-2.204-18.217-7.54c-3.929-4.221-6.68-10.758-1.008-14.845c7.676-5.531,17.947,3.626,21.911,9.991
				c3.106,4.987,7.069,12.531,8.342,14.983c0.102-0.518,0.195-1.025,0.273-1.515c1.041-6.524,1.448-13.049,1.555-18.634
				c-0.408,0.093-0.657,0.149-0.659,0.149c0.21-0.047,0.434-0.187,0.663-0.371c0.004-0.225,0.008-0.451,0.011-0.672
				C622.247,75.458,616.39,73.209,614.997,72.571z"/>
		</g>
		<g>
			<path style="fill:#263238;" d="M552.641,411.936c-2.331-0.898-4.569-1.605-6.002-3.809c-1.133-1.743-1.705-4.236,0.563-5.335
				c3.069-1.488,6.149,2.402,7.162,4.909c0.621,1.537,1.33,3.66,1.753,4.968c-0.091-1.477-0.219-2.698-0.316-3.498
				c-0.003,0.008-0.005,0.012-0.005,0.012c0.002-0.005,0.002-0.013,0.004-0.019c-0.047-0.389-0.088-0.68-0.112-0.848
				c-0.374-1.074-1.373-2.645-1.612-3.077c-1.208-2.187-2.468-4.167-2.148-6.776c0.253-2.064,1.418-4.34,3.861-3.724
				c3.308,0.834,3.165,5.793,2.33,8.364c-0.588,1.81-1.586,4.29-2.059,5.443c0.107,0.789,0.318,2.541,0.43,4.771
				c0.62-0.94,1.249-2.804,1.442-3.277c0.944-2.313,1.694-4.537,3.925-5.926c1.765-1.099,4.268-1.621,5.323,0.668
				c1.428,3.098-2.522,6.101-5.048,7.065c-1.83,0.698-4.48,1.503-5.625,1.843c0.09,2.044,0.092,4.449-0.142,6.87
				c-0.013,0.133-0.029,0.27-0.046,0.408c0.836-0.748,1.924-2.429,2.23-2.844c1.484-2.009,2.759-3.98,5.263-4.777
				c1.981-0.631,4.536-0.521,4.995,1.957c0.621,3.354-3.946,5.292-6.631,5.604c-1.942,0.226-4.706,0.354-5.903,0.402
				c-0.162,1.138-0.444,2.448-0.763,3.924c-0.321,1.486-0.678,3.136-0.974,4.918c0.003,0.006,0.005,0.011,0.008,0.016
				c0.779-0.035,2.47-2.673,2.864-3.207c1.484-2.009,2.759-3.98,5.264-4.777c1.981-0.631,4.536-0.521,4.995,1.958
				c0.621,3.354-3.946,5.292-6.631,5.604c-2.505,0.291-6.381,0.42-6.49,0.423c0.032,0.064,0.054,0.107,0.054,0.108
				c-0.015-0.031-0.043-0.061-0.069-0.091c-0.322,1.948-0.569,4.054-0.62,6.278c0.939-0.227,2.856-1.955,3.323-2.324
				c1.959-1.55,3.707-3.117,6.332-3.229c2.077-0.089,4.513,0.687,4.306,3.199c-0.281,3.4-5.196,4.072-7.869,3.668
				c-2.118-0.319-5.16-1.012-6.094-1.228c-0.048,2.344,0.126,4.818,0.666,7.377c0.978-0.349,2.736-1.93,3.18-2.281
				c1.959-1.55,3.707-3.117,6.332-3.229c2.077-0.089,4.513,0.687,4.306,3.199c-0.281,3.4-5.196,4.072-7.869,3.669
				c-1.997-0.301-4.814-0.934-5.913-1.187c0.66,3.044,1.838,6.205,3.787,9.408l-0.287,0.174c-1.96-3.221-3.149-6.397-3.819-9.456
				c-0.816-0.303-3.518,0.571-4.127,0.725c-2.422,0.613-4.657,1.328-7.099,0.356c-1.932-0.768-3.837-2.474-2.621-4.681
				c1.647-2.987,6.407-1.59,8.682-0.128c1.89,1.214,4.539,3.218,5.157,3.689c-0.013-0.058-0.025-0.115-0.037-0.173
				c-0.066-0.015-0.101-0.024-0.102-0.024c0.029,0.007,0.064,0.004,0.098,0.005c-0.548-2.597-0.723-5.106-0.671-7.48
				c-0.867-0.378-3.484-0.07-4.086-0.038c-2.495,0.132-4.827,0.4-7.034-1.027c-1.746-1.129-3.285-3.171-1.664-5.1
				c2.195-2.611,6.594-0.317,8.542,1.557c1.529,1.472,3.587,3.766,4.244,4.505c0.056-2.291,0.318-4.455,0.655-6.451
				c-0.928-0.512-3.196-0.838-3.741-0.951c-2.445-0.511-4.768-0.847-6.538-2.791c-1.4-1.537-2.365-3.905-0.305-5.356
				c2.789-1.964,6.456,1.379,7.86,3.689c0.985,1.621,2.209,3.982,2.777,5.097c0.281-1.616,0.605-3.12,0.9-4.485
				c0.312-1.444,0.589-2.727,0.75-3.84c-0.159,0.006-0.25,0.009-0.251,0.009c0.078-0.003,0.168-0.038,0.262-0.089
				c0.003-0.019,0.005-0.039,0.008-0.057c-0.78-0.532-3.413-0.714-4.011-0.794c-2.476-0.331-4.818-0.498-6.724-2.307
				c-1.508-1.431-2.643-3.722-0.693-5.319c2.639-2.161,6.539,0.905,8.107,3.107c1.229,1.725,2.823,4.352,3.336,5.206
				c0.025-0.189,0.047-0.373,0.064-0.551c0.229-2.371,0.23-4.728,0.144-6.74c-0.145,0.043-0.233,0.068-0.234,0.068
				c0.074-0.021,0.152-0.077,0.23-0.148c-0.004-0.081-0.007-0.162-0.011-0.242C555.314,412.814,553.156,412.135,552.641,411.936z"/>
			<path style="opacity:0.5;fill:#263238;" d="M552.641,411.936c-2.331-0.898-4.569-1.605-6.002-3.809
				c-1.133-1.743-1.705-4.236,0.563-5.335c3.069-1.488,6.149,2.402,7.162,4.909c0.621,1.537,1.33,3.66,1.753,4.968
				c-0.091-1.477-0.219-2.698-0.316-3.498c-0.003,0.008-0.005,0.012-0.005,0.012c0.002-0.005,0.002-0.013,0.004-0.019
				c-0.047-0.389-0.088-0.68-0.112-0.848c-0.374-1.074-1.373-2.645-1.612-3.077c-1.208-2.187-2.468-4.167-2.148-6.776
				c0.253-2.064,1.418-4.34,3.861-3.724c3.308,0.834,3.165,5.793,2.33,8.364c-0.588,1.81-1.586,4.29-2.059,5.443
				c0.107,0.789,0.318,2.541,0.43,4.771c0.62-0.94,1.249-2.804,1.442-3.277c0.944-2.313,1.694-4.537,3.925-5.926
				c1.765-1.099,4.268-1.621,5.323,0.668c1.428,3.098-2.522,6.101-5.048,7.065c-1.83,0.698-4.48,1.503-5.625,1.843
				c0.09,2.044,0.092,4.449-0.142,6.87c-0.013,0.133-0.029,0.27-0.046,0.408c0.836-0.748,1.924-2.429,2.23-2.844
				c1.484-2.009,2.759-3.98,5.263-4.777c1.981-0.631,4.536-0.521,4.995,1.957c0.621,3.354-3.946,5.292-6.631,5.604
				c-1.942,0.226-4.706,0.354-5.903,0.402c-0.162,1.138-0.444,2.448-0.763,3.924c-0.321,1.486-0.678,3.136-0.974,4.918
				c0.003,0.006,0.005,0.011,0.008,0.016c0.779-0.035,2.47-2.673,2.864-3.207c1.484-2.009,2.759-3.98,5.264-4.777
				c1.981-0.631,4.536-0.521,4.995,1.958c0.621,3.354-3.946,5.292-6.631,5.604c-2.505,0.291-6.381,0.42-6.49,0.423
				c0.032,0.064,0.054,0.107,0.054,0.108c-0.015-0.031-0.043-0.061-0.069-0.091c-0.322,1.948-0.569,4.054-0.62,6.278
				c0.939-0.227,2.856-1.955,3.323-2.324c1.959-1.55,3.707-3.117,6.332-3.229c2.077-0.089,4.513,0.687,4.306,3.199
				c-0.281,3.4-5.196,4.072-7.869,3.668c-2.118-0.319-5.16-1.012-6.094-1.228c-0.048,2.344,0.126,4.818,0.666,7.377
				c0.978-0.349,2.736-1.93,3.18-2.281c1.959-1.55,3.707-3.117,6.332-3.229c2.077-0.089,4.513,0.687,4.306,3.199
				c-0.281,3.4-5.196,4.072-7.869,3.669c-1.997-0.301-4.814-0.934-5.913-1.187c0.66,3.044,1.838,6.205,3.787,9.408l-0.287,0.174
				c-1.96-3.221-3.149-6.397-3.819-9.456c-0.816-0.303-3.518,0.571-4.127,0.725c-2.422,0.613-4.657,1.328-7.099,0.356
				c-1.932-0.768-3.837-2.474-2.621-4.681c1.647-2.987,6.407-1.59,8.682-0.128c1.89,1.214,4.539,3.218,5.157,3.689
				c-0.013-0.058-0.025-0.115-0.037-0.173c-0.066-0.015-0.101-0.024-0.102-0.024c0.029,0.007,0.064,0.004,0.098,0.005
				c-0.548-2.597-0.723-5.106-0.671-7.48c-0.867-0.378-3.484-0.07-4.086-0.038c-2.495,0.132-4.827,0.4-7.034-1.027
				c-1.746-1.129-3.285-3.171-1.664-5.1c2.195-2.611,6.594-0.317,8.542,1.557c1.529,1.472,3.587,3.766,4.244,4.505
				c0.056-2.291,0.318-4.455,0.655-6.451c-0.928-0.512-3.196-0.838-3.741-0.951c-2.445-0.511-4.768-0.847-6.538-2.791
				c-1.4-1.537-2.365-3.905-0.305-5.356c2.789-1.964,6.456,1.379,7.86,3.689c0.985,1.621,2.209,3.982,2.777,5.097
				c0.281-1.616,0.605-3.12,0.9-4.485c0.312-1.444,0.589-2.727,0.75-3.84c-0.159,0.006-0.25,0.009-0.251,0.009
				c0.078-0.003,0.168-0.038,0.262-0.089c0.003-0.019,0.005-0.039,0.008-0.057c-0.78-0.532-3.413-0.714-4.011-0.794
				c-2.476-0.331-4.818-0.498-6.724-2.307c-1.508-1.431-2.643-3.722-0.693-5.319c2.639-2.161,6.539,0.905,8.107,3.107
				c1.229,1.725,2.823,4.352,3.336,5.206c0.025-0.189,0.047-0.373,0.064-0.551c0.229-2.371,0.23-4.728,0.144-6.74
				c-0.145,0.043-0.233,0.068-0.234,0.068c0.074-0.021,0.152-0.077,0.23-0.148c-0.004-0.081-0.007-0.162-0.011-0.242
				C555.314,412.814,553.156,412.135,552.641,411.936z"/>
		</g>
		<g>
			<path style="fill:#263238;" d="M592.829,425.867c-1.291-1.253-2.575-2.353-2.903-4.217c-0.259-1.475,0.065-3.288,1.878-3.376
				c2.454-0.12,3.397,3.326,3.362,5.273c-0.022,1.194-0.151,2.801-0.239,3.786c0.357-1.005,0.616-1.85,0.777-2.407
				c-0.004,0.004-0.007,0.006-0.007,0.007c0.003-0.003,0.005-0.008,0.008-0.011c0.078-0.271,0.134-0.475,0.165-0.594
				c0.055-0.817-0.164-2.14-0.2-2.494c-0.184-1.79-0.46-3.458,0.487-5.096c0.749-1.296,2.163-2.476,3.609-1.379
				c1.957,1.485,0.464,4.732-0.815,6.2c-0.9,1.033-2.261,2.396-2.9,3.026c-0.152,0.553-0.506,1.774-1.06,3.283
				c0.676-0.448,1.619-1.506,1.88-1.765c1.278-1.267,2.403-2.529,4.273-2.82c1.479-0.231,3.285,0.129,3.339,1.944
				c0.072,2.456-3.392,3.332-5.337,3.258c-1.41-0.053-3.393-0.267-4.248-0.365c-0.517,1.38-1.194,2.975-2.032,4.513
				c-0.046,0.084-0.095,0.171-0.146,0.257c0.765-0.26,1.96-1.067,2.28-1.255c1.55-0.913,2.951-1.859,4.836-1.681
				c1.491,0.141,3.153,0.934,2.758,2.706c-0.534,2.398-4.108,2.394-5.975,1.843c-1.35-0.398-3.218-1.093-4.025-1.399
				c-0.428,0.709-0.984,1.497-1.612,2.385c-0.632,0.894-1.334,1.887-2.033,2.984c0,0.005,0.001,0.009,0.001,0.013
				c0.526,0.197,2.391-1.075,2.802-1.317c1.55-0.913,2.951-1.859,4.836-1.681c1.491,0.141,3.153,0.934,2.758,2.706
				c-0.534,2.398-4.108,2.394-5.975,1.843c-1.742-0.514-4.347-1.522-4.42-1.55c0.003,0.052,0.005,0.086,0.005,0.087
				c-0.001-0.025-0.011-0.052-0.02-0.08c-0.763,1.2-1.521,2.526-2.182,3.986c0.686,0.114,2.444-0.49,2.858-0.603
				c1.735-0.474,3.336-1.02,5.107-0.354c1.401,0.527,2.797,1.729,1.951,3.335c-1.145,2.174-4.592,1.233-6.25,0.211
				c-1.314-0.809-3.134-2.126-3.692-2.533c-0.693,1.539-1.275,3.228-1.64,5.076c0.747,0.045,2.357-0.507,2.751-0.615
				c1.735-0.474,3.336-1.02,5.107-0.354c1.401,0.527,2.797,1.729,1.951,3.335c-1.145,2.174-4.592,1.233-6.25,0.211
				c-1.238-0.763-2.927-1.976-3.584-2.454c-0.421,2.204-0.532,4.63-0.144,7.302l-0.24,0.035c-0.39-2.687-0.282-5.127,0.136-7.343
				c-0.456-0.431-2.492-0.614-2.939-0.684c-1.778-0.277-3.461-0.434-4.805-1.766c-1.063-1.054-1.845-2.722-0.417-3.841
				c1.934-1.515,4.694,0.754,5.789,2.364c0.91,1.338,2.1,3.413,2.377,3.899c0.008-0.042,0.016-0.083,0.024-0.125
				c-0.039-0.029-0.06-0.044-0.061-0.044c0.017,0.013,0.041,0.021,0.063,0.031c0.37-1.875,0.961-3.587,1.665-5.147
				c-0.468-0.495-2.289-1.029-2.697-1.178c-1.69-0.617-3.311-1.096-4.371-2.664c-0.839-1.24-1.283-3.028,0.336-3.849
				c2.191-1.111,4.459,1.649,5.221,3.441c0.598,1.407,1.315,3.507,1.541,4.183c0.683-1.502,1.467-2.862,2.254-4.09
				c-0.471-0.601-1.882-1.457-2.211-1.686c-1.477-1.028-2.921-1.906-3.545-3.693c-0.494-1.413-0.466-3.255,1.309-3.635
				c2.402-0.514,3.889,2.734,4.168,4.661c0.196,1.352,0.34,3.262,0.402,4.161c0.642-0.992,1.281-1.897,1.862-2.718
				c0.614-0.869,1.159-1.641,1.58-2.333c-0.107-0.041-0.168-0.065-0.169-0.065c0.053,0.02,0.122,0.022,0.199,0.015
				c0.007-0.012,0.015-0.024,0.022-0.036c-0.367-0.573-2.06-1.435-2.434-1.657c-1.547-0.918-3.052-1.689-3.805-3.425
				c-0.595-1.374-0.702-3.212,1.041-3.721c2.358-0.688,4.078,2.444,4.496,4.346c0.328,1.49,0.643,3.68,0.742,4.391
				c0.07-0.118,0.137-0.234,0.198-0.347c0.821-1.507,1.486-3.068,1.997-4.426c-0.108-0.013-0.174-0.021-0.174-0.021
				c0.055,0.007,0.122-0.008,0.194-0.033c0.02-0.055,0.041-0.11,0.061-0.164C594.354,427.203,593.115,426.144,592.829,425.867z"/>
			<path style="opacity:0.5;fill:#263238;" d="M592.829,425.867c-1.291-1.253-2.575-2.353-2.903-4.217
				c-0.259-1.475,0.065-3.288,1.878-3.376c2.454-0.12,3.397,3.326,3.362,5.273c-0.022,1.194-0.151,2.801-0.239,3.786
				c0.357-1.005,0.616-1.85,0.777-2.407c-0.004,0.004-0.007,0.006-0.007,0.007c0.003-0.003,0.005-0.008,0.008-0.011
				c0.078-0.271,0.134-0.475,0.165-0.594c0.055-0.817-0.164-2.14-0.2-2.494c-0.184-1.79-0.46-3.458,0.487-5.096
				c0.749-1.296,2.163-2.476,3.609-1.379c1.957,1.485,0.464,4.732-0.815,6.2c-0.9,1.033-2.261,2.396-2.9,3.026
				c-0.152,0.553-0.506,1.774-1.06,3.283c0.676-0.448,1.619-1.506,1.88-1.765c1.278-1.267,2.403-2.529,4.273-2.82
				c1.479-0.231,3.285,0.129,3.339,1.944c0.072,2.456-3.392,3.332-5.337,3.258c-1.41-0.053-3.393-0.267-4.248-0.365
				c-0.517,1.38-1.194,2.975-2.032,4.513c-0.046,0.084-0.095,0.171-0.146,0.257c0.765-0.26,1.96-1.067,2.28-1.255
				c1.55-0.913,2.951-1.859,4.836-1.681c1.491,0.141,3.153,0.934,2.758,2.706c-0.534,2.398-4.108,2.394-5.975,1.843
				c-1.35-0.398-3.218-1.093-4.025-1.399c-0.428,0.709-0.984,1.497-1.612,2.385c-0.632,0.894-1.334,1.887-2.033,2.984
				c0,0.005,0.001,0.009,0.001,0.013c0.526,0.197,2.391-1.075,2.802-1.317c1.55-0.913,2.951-1.859,4.836-1.681
				c1.491,0.141,3.153,0.934,2.758,2.706c-0.534,2.398-4.108,2.394-5.975,1.843c-1.742-0.514-4.347-1.522-4.42-1.55
				c0.003,0.052,0.005,0.086,0.005,0.087c-0.001-0.025-0.011-0.052-0.02-0.08c-0.763,1.2-1.521,2.526-2.182,3.986
				c0.686,0.114,2.444-0.49,2.858-0.603c1.735-0.474,3.336-1.02,5.107-0.354c1.401,0.527,2.797,1.729,1.951,3.335
				c-1.145,2.174-4.592,1.233-6.25,0.211c-1.314-0.809-3.134-2.126-3.692-2.533c-0.693,1.539-1.275,3.228-1.64,5.076
				c0.747,0.045,2.357-0.507,2.751-0.615c1.735-0.474,3.336-1.02,5.107-0.354c1.401,0.527,2.797,1.729,1.951,3.335
				c-1.145,2.174-4.592,1.233-6.25,0.211c-1.238-0.763-2.927-1.976-3.584-2.454c-0.421,2.204-0.532,4.63-0.144,7.302l-0.24,0.035
				c-0.39-2.687-0.282-5.127,0.136-7.343c-0.456-0.431-2.492-0.614-2.939-0.684c-1.778-0.277-3.461-0.434-4.805-1.766
				c-1.063-1.054-1.845-2.722-0.417-3.841c1.934-1.515,4.694,0.754,5.789,2.364c0.91,1.338,2.1,3.413,2.377,3.899
				c0.008-0.042,0.016-0.083,0.024-0.125c-0.039-0.029-0.06-0.044-0.061-0.044c0.017,0.013,0.041,0.021,0.063,0.031
				c0.37-1.875,0.961-3.587,1.665-5.147c-0.468-0.495-2.289-1.029-2.697-1.178c-1.69-0.617-3.311-1.096-4.371-2.664
				c-0.839-1.24-1.283-3.028,0.336-3.849c2.191-1.111,4.459,1.649,5.221,3.441c0.598,1.407,1.315,3.507,1.541,4.183
				c0.683-1.502,1.467-2.862,2.254-4.09c-0.471-0.601-1.882-1.457-2.211-1.686c-1.477-1.028-2.921-1.906-3.545-3.693
				c-0.494-1.413-0.466-3.255,1.309-3.635c2.402-0.514,3.889,2.734,4.168,4.661c0.196,1.352,0.34,3.262,0.402,4.161
				c0.642-0.992,1.281-1.897,1.862-2.718c0.614-0.869,1.159-1.641,1.58-2.333c-0.107-0.041-0.168-0.065-0.169-0.065
				c0.053,0.02,0.122,0.022,0.199,0.015c0.007-0.012,0.015-0.024,0.022-0.036c-0.367-0.573-2.06-1.435-2.434-1.657
				c-1.547-0.918-3.052-1.689-3.805-3.425c-0.595-1.374-0.702-3.212,1.041-3.721c2.358-0.688,4.078,2.444,4.496,4.346
				c0.328,1.49,0.643,3.68,0.742,4.391c0.07-0.118,0.137-0.234,0.198-0.347c0.821-1.507,1.486-3.068,1.997-4.426
				c-0.108-0.013-0.174-0.021-0.174-0.021c0.055,0.007,0.122-0.008,0.194-0.033c0.02-0.055,0.041-0.11,0.061-0.164
				C594.354,427.203,593.115,426.144,592.829,425.867z"/>
		</g>
	</g>
</g>
<g id="Hat">
	<g>
		<g>
			<g>
				<g>
					<path style="fill:#92E3A9;stroke:#263238;stroke-linecap:round;stroke-linejoin:round;stroke-miterlimit:10;" d="
						M54.022,350.474c-0.763,0-1.382-0.619-1.382-1.382v-93.71c0-0.764,0.619-1.382,1.382-1.382c0.764,0,1.382,0.619,1.382,1.382
						v93.71C55.404,349.855,54.786,350.474,54.022,350.474z"/>
				</g>
				<g>
					<path style="fill:#92E3A9;stroke:#263238;stroke-linecap:round;stroke-linejoin:round;stroke-miterlimit:10;" d="
						M53.324,346.86c0,0-6.751,3.495-8.496,13.264c-1.745,9.769-5.583,27.564-5.583,27.564h27.215c0,0-1.744-19.888-3.838-28.261
						C60.529,351.053,54.706,345.675,53.324,346.86z"/>
					<path style="fill:#92E3A9;stroke:#263238;stroke-linecap:round;stroke-linejoin:round;stroke-miterlimit:10;" d="
						M58.187,347.907c0,2.543-1.865,4.604-4.165,4.604s-4.165-2.061-4.165-4.604c0-2.543,1.865-4.604,4.165-4.604
						S58.187,345.364,58.187,347.907z"/>
					
						<line style="fill:#92E3A9;stroke:#263238;stroke-linecap:round;stroke-linejoin:round;stroke-miterlimit:10;" x1="44.131" y1="387.339" x2="46.922" y2="374.08"/>
					
						<line style="fill:#92E3A9;stroke:#263238;stroke-linecap:round;stroke-linejoin:round;stroke-miterlimit:10;" x1="51.109" y1="368.847" x2="48.666" y2="383.152"/>
					
						<line style="fill:#92E3A9;stroke:#263238;stroke-linecap:round;stroke-linejoin:round;stroke-miterlimit:10;" x1="54.598" y1="386.99" x2="55.296" y2="380.71"/>
					
						<line style="fill:#92E3A9;stroke:#263238;stroke-linecap:round;stroke-linejoin:round;stroke-miterlimit:10;" x1="61.227" y1="386.641" x2="59.482" y2="373.034"/>
				</g>
			</g>
			<polygon style="fill:#263238;stroke:#263238;stroke-linecap:round;stroke-linejoin:round;stroke-miterlimit:10;" points="
				122.106,147.254 49.366,258.003 176.497,203.612 262.344,126.284 			"/>
		</g>
		<path style="fill:#FFFFFF;stroke:#263238;stroke-linecap:round;stroke-linejoin:round;stroke-miterlimit:10;" d="M210.021,164.639
			c-6.32-13.283-35.299-12.699-64.727,1.303c-29.428,14.002-48.161,36.12-41.841,49.403l19.743,39.046l106.569-50.705
			L210.021,164.639z"/>
		
			<ellipse transform="matrix(0.903 -0.4296 0.4296 0.903 -81.2863 98.041)" style="fill:#263238;stroke:#263238;stroke-linecap:round;stroke-linejoin:round;stroke-miterlimit:10;" cx="176.48" cy="229.038" rx="59.008" ry="26.634"/>
	</g>
</g>
<g id="Device">
	<g>
		<path style="fill:#FFFFFF;stroke:#263238;stroke-linecap:round;stroke-linejoin:round;stroke-miterlimit:10;" d="M531.314,447.233
			H398.654l4.466-5.529c7.006-8.681,10.842-19.432,10.842-30.508v-33.912h102.043v33.912c0,11.076,3.818,21.828,10.842,30.508
			L531.314,447.233z"/>
		
			<rect x="413.963" y="377.283" style="fill:#263238;stroke:#263238;stroke-linecap:round;stroke-linejoin:round;stroke-miterlimit:10;" width="102.043" height="26.456"/>
		<path id="XMLID_146_" style="fill:#263238;stroke:#263238;stroke-linecap:round;stroke-linejoin:round;stroke-miterlimit:10;" d="
			M661.582,387.977h-393.2c-4.686,0-8.484-3.799-8.484-8.484V95.288c0-4.686,3.799-8.484,8.484-8.484h393.2
			c4.686,0,8.484,3.799,8.484,8.484v284.205C670.067,384.179,666.268,387.977,661.582,387.977z"/>
		<path id="XMLID_145_" style="fill:#FFFFFF;stroke:#263238;stroke-linecap:round;stroke-linejoin:round;stroke-miterlimit:10;" d="
			M661.582,387.977h-393.2c-4.686,0-8.484-3.799-8.484-8.484v-38.33h410.169v38.33C670.067,384.179,666.268,387.977,661.582,387.977
			z"/>
		
			<rect id="XMLID_144_" x="280.53" y="105.54" style="fill:#FFFFFF;stroke:#263238;stroke-linecap:round;stroke-linejoin:round;stroke-miterlimit:10;" width="368.905" height="212.779"/>
		<g>
			
				<rect x="502.084" y="131.868" style="fill:none;stroke:#263238;stroke-linecap:round;stroke-linejoin:round;stroke-miterlimit:10;" width="138.012" height="167.586"/>
			<polygon style="fill:#FFFFFF;stroke:#263238;stroke-linecap:round;stroke-linejoin:round;stroke-miterlimit:10;" points="
				640.096,169.892 628.126,153.697 573.907,247.348 549.966,230.448 502.084,299.454 640.096,299.454 			"/>
			
				<ellipse transform="matrix(0.7071 -0.7071 0.7071 0.7071 37.383 429.3305)" style="fill:#FFFFFF;stroke:#263238;stroke-linecap:round;stroke-linejoin:round;stroke-miterlimit:10;" cx="536.939" cy="169.54" rx="20.068" ry="20.068"/>
		</g>
		<g>
			<path style="fill:#263238;" d="M299.9,168.639l0.495-28.652h6.792l3.148,16.66l3.396-16.66h6.544l0.495,28.652h-4.492
				l-0.531-19.066l-3.325,19.066h-3.997l-3.538-19.207l-0.424,19.207H299.9z"/>
			<path style="fill:#263238;" d="M328.233,168.639V156.93l-5.447-16.943h5.978l2.724,9.055l2.44-9.055h5.73l-5.341,16.943v11.708
				H328.233z"/>
			<path style="fill:#263238;" d="M353.419,168.639v-23.947h-4.316v-4.704h14.963v4.704h-4.28v23.947H353.419z"/>
			<path style="fill:#263238;" d="M366.683,168.639v-28.652h6.331v11.602h4.422v-11.602h6.367v28.652h-6.367v-12.522h-4.422v12.522
				H366.683z"/>
			<path style="fill:#263238;" d="M388.153,168.639v-28.652h12.876v4.315h-6.544v7.11h4.987v4.386h-4.987v8.56h6.615v4.28H388.153z"
				/>
			<path style="fill:#263238;" d="M411.569,169.063c-1.792,0-3.289-0.318-4.492-0.955c-1.202-0.637-2.111-1.621-2.724-2.954
				c-0.613-1.332-0.955-3.059-1.026-5.182l5.412-0.813c0.023,1.226,0.135,2.217,0.336,2.971c0.2,0.755,0.483,1.297,0.849,1.627
				c0.365,0.331,0.808,0.495,1.326,0.495c0.66,0,1.091-0.224,1.291-0.672c0.2-0.448,0.301-0.92,0.301-1.415
				c0-1.179-0.283-2.175-0.849-2.989c-0.566-0.813-1.333-1.633-2.299-2.459l-2.476-2.157c-1.085-0.92-1.998-1.964-2.741-3.131
				c-0.743-1.167-1.114-2.611-1.114-4.333c0-2.428,0.719-4.285,2.157-5.571c1.438-1.285,3.396-1.928,5.872-1.928
				c1.533,0,2.765,0.26,3.697,0.778c0.931,0.519,1.638,1.197,2.122,2.034c0.483,0.837,0.814,1.722,0.991,2.653
				c0.177,0.932,0.277,1.822,0.301,2.671l-5.447,0.672c-0.024-0.849-0.077-1.586-0.16-2.211c-0.083-0.624-0.253-1.108-0.513-1.45
				c-0.26-0.342-0.661-0.513-1.203-0.513c-0.59,0-1.02,0.248-1.291,0.743c-0.271,0.495-0.407,0.991-0.407,1.486
				c0,1.061,0.253,1.928,0.761,2.6c0.507,0.672,1.173,1.374,1.999,2.105l2.37,2.087c1.249,1.061,2.304,2.264,3.165,3.608
				c0.861,1.344,1.291,3.007,1.291,4.987c0,1.344-0.307,2.565-0.92,3.661c-0.614,1.097-1.48,1.963-2.6,2.6
				C414.429,168.745,413.102,169.063,411.569,169.063z"/>
			<path style="fill:#263238;" d="M421.615,168.639v-28.652h6.331v28.652H421.615z"/>
			<path style="fill:#263238;" d="M439.832,169.063c-1.792,0-3.289-0.318-4.492-0.955c-1.203-0.637-2.111-1.621-2.724-2.954
				c-0.613-1.332-0.955-3.059-1.026-5.182l5.412-0.813c0.023,1.226,0.135,2.217,0.336,2.971c0.2,0.755,0.483,1.297,0.849,1.627
				c0.365,0.331,0.807,0.495,1.326,0.495c0.66,0,1.091-0.224,1.291-0.672c0.2-0.448,0.301-0.92,0.301-1.415
				c0-1.179-0.283-2.175-0.849-2.989c-0.566-0.813-1.333-1.633-2.299-2.459l-2.476-2.157c-1.085-0.92-1.998-1.964-2.741-3.131
				c-0.743-1.167-1.114-2.611-1.114-4.333c0-2.428,0.719-4.285,2.157-5.571c1.438-1.285,3.396-1.928,5.872-1.928
				c1.532,0,2.765,0.26,3.697,0.778c0.931,0.519,1.638,1.197,2.122,2.034c0.483,0.837,0.814,1.722,0.991,2.653
				c0.177,0.932,0.277,1.822,0.301,2.671l-5.447,0.672c-0.024-0.849-0.077-1.586-0.16-2.211c-0.082-0.624-0.253-1.108-0.513-1.45
				c-0.26-0.342-0.66-0.513-1.203-0.513c-0.59,0-1.02,0.248-1.291,0.743c-0.271,0.495-0.407,0.991-0.407,1.486
				c0,1.061,0.253,1.928,0.761,2.6c0.507,0.672,1.173,1.374,1.999,2.105l2.37,2.087c1.249,1.061,2.304,2.264,3.165,3.608
				c0.861,1.344,1.291,3.007,1.291,4.987c0,1.344-0.306,2.565-0.92,3.661c-0.614,1.097-1.48,1.963-2.6,2.6
				C442.691,168.745,441.365,169.063,439.832,169.063z"/>
		</g>
		<line style="fill:none;stroke:#263238;stroke-miterlimit:10;" x1="300.7" y1="188.904" x2="487.297" y2="188.904"/>
		<line style="fill:none;stroke:#263238;stroke-miterlimit:10;" x1="300.7" y1="204.395" x2="487.297" y2="204.395"/>
		<line style="fill:none;stroke:#263238;stroke-miterlimit:10;" x1="300.7" y1="219.886" x2="487.297" y2="219.886"/>
		
			<rect x="280.53" y="105.54" style="fill:#FFFFFF;stroke:#263238;stroke-linecap:round;stroke-linejoin:round;stroke-miterlimit:10;" width="368.905" height="21.157"/>
		
			<rect x="280.53" y="305.042" style="fill:#FFFFFF;stroke:#263238;stroke-linecap:round;stroke-linejoin:round;stroke-miterlimit:10;" width="368.905" height="13.277"/>
		
			<rect id="XMLID_142_" x="398.646" y="447.225" style="fill:#263238;stroke:#263238;stroke-linecap:round;stroke-linejoin:round;stroke-miterlimit:10;" width="132.701" height="6.058"/>
	</g>
</g>
<g id="Floor">
	
		<line style="fill:none;stroke:#263238;stroke-linecap:round;stroke-linejoin:round;stroke-miterlimit:10;" x1="680.345" y1="453.282" x2="44.194" y2="453.282"/>
</g>
<g id="Books">
	<g>
		<path style="fill:#8C8C8C;stroke:#263238;stroke-linecap:round;stroke-linejoin:round;stroke-miterlimit:10;" d="M325.754,441.354
			v-20.362c0-6.588,5.341-11.929,11.929-11.929H184.083c-6.588,0-11.929,5.341-11.929,11.929v20.362
			c0,6.588,5.341,11.929,11.929,11.929h153.599C331.094,453.282,325.754,447.942,325.754,441.354z"/>
		<g>
			<path style="fill:#949494;stroke:#263238;stroke-linecap:round;stroke-linejoin:round;stroke-miterlimit:10;" d="
				M437.839,410.677l1.342-0.881c0.332-0.218,0.178-0.733-0.219-0.733H337.682c-6.588,0-11.929,5.341-11.929,11.929v20.362
				c0,6.588,5.341,11.929,11.929,11.929h101.279c0.397,0,0.551-0.516,0.219-0.733l-1.342-0.881V410.677z"/>
			<path style="fill:#FFFFFF;stroke:#263238;stroke-linecap:round;stroke-linejoin:round;stroke-miterlimit:10;" d="
				M344.159,410.677h93.679v40.99h-93.68c-8.946,0-16.198-7.252-16.198-16.198v-8.595
				C327.961,417.93,335.214,410.677,344.159,410.677z"/>
			
				<line style="fill:none;stroke:#263238;stroke-linecap:round;stroke-linejoin:round;stroke-miterlimit:10;" x1="331.401" y1="418.222" x2="370.918" y2="418.222"/>
			
				<line style="fill:none;stroke:#263238;stroke-linecap:round;stroke-linejoin:round;stroke-miterlimit:10;" x1="360.542" y1="421.975" x2="397.41" y2="421.975"/>
			
				<line style="fill:none;stroke:#263238;stroke-linecap:round;stroke-linejoin:round;stroke-miterlimit:10;" x1="382.84" y1="426.611" x2="347.517" y2="426.611"/>
			
				<line style="fill:none;stroke:#263238;stroke-linecap:round;stroke-linejoin:round;stroke-miterlimit:10;" x1="332.284" y1="440.74" x2="355.464" y2="440.74"/>
			
				<line style="fill:none;stroke:#263238;stroke-linecap:round;stroke-linejoin:round;stroke-miterlimit:10;" x1="349.504" y1="444.052" x2="384.164" y2="444.052"/>
			
				<line style="fill:none;stroke:#263238;stroke-linecap:round;stroke-linejoin:round;stroke-miterlimit:10;" x1="345.309" y1="447.143" x2="354.581" y2="447.143"/>
			
				<line style="fill:none;stroke:#263238;stroke-linecap:round;stroke-linejoin:round;stroke-miterlimit:10;" x1="371.36" y1="437.65" x2="430.305" y2="437.65"/>
			
				<line style="fill:none;stroke:#263238;stroke-linecap:round;stroke-linejoin:round;stroke-miterlimit:10;" x1="437.149" y1="428.156" x2="425.007" y2="428.156"/>
			
				<line style="fill:none;stroke:#263238;stroke-linecap:round;stroke-linejoin:round;stroke-miterlimit:10;" x1="435.162" y1="425.066" x2="422.799" y2="425.066"/>
			
				<line style="fill:none;stroke:#263238;stroke-linecap:round;stroke-linejoin:round;stroke-miterlimit:10;" x1="435.162" y1="444.935" x2="404.254" y2="444.935"/>
		</g>
	</g>
	<g>
		<path style="fill:#FFFFFF;stroke:#263238;stroke-linecap:round;stroke-linejoin:round;stroke-miterlimit:10;" d="M335.607,396.922
			V376.56c0-6.588-5.341-11.928-11.929-11.928h112.477c6.588,0,11.929,5.34,11.929,11.928v20.362
			c0,6.588-5.341,11.929-11.929,11.929H323.678C330.266,408.851,335.607,403.51,335.607,396.922z"/>
		<g>
			<path style="fill:#949494;stroke:#263238;stroke-linecap:round;stroke-linejoin:round;stroke-miterlimit:10;" d="
				M223.521,366.246l-1.342-0.881c-0.332-0.218-0.178-0.733,0.219-0.733h101.28c6.588,0,11.929,5.341,11.929,11.928v20.362
				c0,6.588-5.341,11.929-11.929,11.929h-101.28c-0.397,0-0.551-0.516-0.219-0.733l1.342-0.881V366.246z"/>
			<path style="fill:#FFFFFF;stroke:#263238;stroke-linecap:round;stroke-linejoin:round;stroke-miterlimit:10;" d="
				M316.426,366.246h-92.904v40.991h92.904c9.374,0,16.973-7.599,16.973-16.973v-7.044
				C333.399,373.845,325.799,366.246,316.426,366.246z"/>
			
				<line style="fill:none;stroke:#263238;stroke-linecap:round;stroke-linejoin:round;stroke-miterlimit:10;" x1="329.96" y1="373.79" x2="290.442" y2="373.79"/>
			
				<line style="fill:none;stroke:#263238;stroke-linecap:round;stroke-linejoin:round;stroke-miterlimit:10;" x1="300.818" y1="377.543" x2="263.95" y2="377.543"/>
			
				<line style="fill:none;stroke:#263238;stroke-linecap:round;stroke-linejoin:round;stroke-miterlimit:10;" x1="278.52" y1="382.18" x2="313.843" y2="382.18"/>
			
				<line style="fill:none;stroke:#263238;stroke-linecap:round;stroke-linejoin:round;stroke-miterlimit:10;" x1="329.076" y1="396.309" x2="305.896" y2="396.309"/>
			
				<line style="fill:none;stroke:#263238;stroke-linecap:round;stroke-linejoin:round;stroke-miterlimit:10;" x1="311.856" y1="399.62" x2="277.196" y2="399.62"/>
			
				<line style="fill:none;stroke:#263238;stroke-linecap:round;stroke-linejoin:round;stroke-miterlimit:10;" x1="316.051" y1="402.711" x2="306.779" y2="402.711"/>
			
				<line style="fill:none;stroke:#263238;stroke-linecap:round;stroke-linejoin:round;stroke-miterlimit:10;" x1="290" y1="393.218" x2="231.055" y2="393.218"/>
			
				<line style="fill:none;stroke:#263238;stroke-linecap:round;stroke-linejoin:round;stroke-miterlimit:10;" x1="224.211" y1="383.725" x2="236.354" y2="383.725"/>
			
				<line style="fill:none;stroke:#263238;stroke-linecap:round;stroke-linejoin:round;stroke-miterlimit:10;" x1="226.198" y1="380.634" x2="238.561" y2="380.634"/>
			
				<line style="fill:none;stroke:#263238;stroke-linecap:round;stroke-linejoin:round;stroke-miterlimit:10;" x1="226.198" y1="400.504" x2="257.106" y2="400.504"/>
		</g>
	</g>
	<g>
		<g>
			<path style="fill:#FFFFFF;stroke:#263238;stroke-linecap:round;stroke-linejoin:round;stroke-miterlimit:10;" d="M324.18,231.693
				l0.072-3.307L323.3,230.5l-0.746-1.012v-4.496l-2.451-0.377l-0.189-2.263l-1.32-0.377v-2.451l-1.697-0.377v-2.64l-2.828-0.566
				l-0.566-1.32l-2.466-0.763h0l-73.111,16.08l-76.25-6.496c0,0-4.949,39.285-10.517,74.859
				c-5.568,35.573-30.005,124.97-30.005,124.97l-5.208,6.402l1.949,2.71l-0.962,0.787l2.192,0.923l1.065,1.482l-0.429,1.178
				l1.929,0.908l1.059,1.472l-0.348,1.392l2.039,0.96l0.821,1.142l-0.974,1.67l3.127,1.323l1.181,1.642l-0.914,1.372l2.968,1.484
				l1.015,1.411l-0.589,0.687h1.083l0.957,1.33c0,0,99.585,1.03,157.689-0.527c0,0,22.827-117.764,27.496-153.042
				c4.669-35.277,7.263-66.405,7.263-66.405L324.18,231.693z"/>
			<path style="fill:#92E3A9;stroke:#263238;stroke-linecap:round;stroke-linejoin:round;stroke-miterlimit:10;" d="M156.93,216.97
				c0,0-4.15,61.217-14.526,107.389c-10.376,46.172-26.458,105.313-26.458,105.313s98.394,1.391,156.499-0.165
				c0,0,26.661-113.968,31.33-149.245c4.669-35.277,7.263-66.405,7.263-66.405S171.975,219.564,156.93,216.97z"/>
			
				<line style="fill:none;stroke:#263238;stroke-linecap:round;stroke-linejoin:round;stroke-miterlimit:10;" x1="127.249" y1="439.795" x2="190.561" y2="442.565"/>
			
				<line style="fill:none;stroke:#263238;stroke-linecap:round;stroke-linejoin:round;stroke-miterlimit:10;" x1="174.667" y1="439.936" x2="196.515" y2="440.886"/>
			
				<line style="fill:none;stroke:#263238;stroke-linecap:round;stroke-linejoin:round;stroke-miterlimit:10;" x1="255.151" y1="446.205" x2="220.005" y2="446.395"/>
			
				<line style="fill:none;stroke:#263238;stroke-linecap:round;stroke-linejoin:round;stroke-miterlimit:10;" x1="282.224" y1="449.458" x2="262.371" y2="449.435"/>
			<path style="fill:none;stroke:#263238;stroke-linecap:round;stroke-linejoin:round;stroke-miterlimit:10;" d="M277.189,435.946
				c0,0,5.699,9.689,11.399,15.388"/>
			<polyline style="fill:none;stroke:#263238;stroke-linecap:round;stroke-linejoin:round;stroke-miterlimit:10;" points="
				284.978,430.437 282.319,443.545 263.722,443.676 			"/>
			
				<line style="fill:none;stroke:#263238;stroke-linecap:round;stroke-linejoin:round;stroke-miterlimit:10;" x1="288.778" y1="423.218" x2="284.788" y2="440.316"/>
			
				<line style="fill:none;stroke:#263238;stroke-linecap:round;stroke-linejoin:round;stroke-miterlimit:10;" x1="276.429" y1="438.986" x2="239.763" y2="439.366"/>
			<path style="fill:none;stroke:#263238;stroke-linecap:round;stroke-linejoin:round;stroke-miterlimit:10;" d="M318.035,229.629
				c0,0-4.75,50.155-7.029,66.303"/>
			
				<line style="fill:none;stroke:#263238;stroke-linecap:round;stroke-linejoin:round;stroke-miterlimit:10;" x1="321.454" y1="228.679" x2="320.124" y2="243.687"/>
			<path style="fill:none;stroke:#263238;stroke-linecap:round;stroke-linejoin:round;stroke-miterlimit:10;" d="M309.296,279.213
				c0,0-3.61,29.067-7.029,46.355"/>
			
				<line style="fill:none;stroke:#263238;stroke-linecap:round;stroke-linejoin:round;stroke-miterlimit:10;" x1="257.554" y1="449.458" x2="242.906" y2="449.458"/>
			<path style="fill:none;stroke:#263238;stroke-linecap:round;stroke-linejoin:round;stroke-miterlimit:10;" d="M127.048,444.447
				c0,0,39.318,1.927,40.475,1.927"/>
			
				<line style="fill:none;stroke:#263238;stroke-linecap:round;stroke-linejoin:round;stroke-miterlimit:10;" x1="147.478" y1="436.738" x2="159.813" y2="437.123"/>
			<path style="fill:none;stroke:#263238;stroke-linecap:round;stroke-linejoin:round;stroke-miterlimit:10;" d="M302.269,369.665
				c0,0-8.866,46.257-11.564,57.821"/>
		</g>
		<g>
			<path style="fill:#263238;" d="M176.285,312.359l4.4-24.717l-4.374,0.01l0.864-4.856l15.167-0.034l-0.864,4.856l-4.339,0.01
				l-4.399,24.717L176.285,312.359z"/>
			<path style="fill:#263238;" d="M189.731,312.329l5.264-29.573l6.418-0.014l-2.132,11.975l4.482-0.01l2.132-11.975l6.454-0.014
				l-5.264,29.573l-6.454,0.014l2.301-12.924l-4.482,0.01l-2.301,12.924L189.731,312.329z"/>
			<path style="fill:#263238;" d="M211.495,312.281l5.264-29.573l13.052-0.029l-0.793,4.454l-6.633,0.015l-1.306,7.338l5.056-0.011
				l-0.806,4.527l-5.056,0.011l-1.573,8.835l6.705-0.015l-0.786,4.418L211.495,312.281z"/>
			<path style="fill:#263238;" d="M235.154,312.666c-1.817,0.004-3.276-0.321-4.379-0.976c-1.102-0.654-1.842-1.669-2.218-3.043
				c-0.377-1.374-0.406-3.156-0.088-5.346l5.635-0.852c-0.201,1.266-0.27,2.288-0.205,3.066c0.064,0.779,0.251,1.338,0.561,1.678
				c0.31,0.34,0.727,0.509,1.254,0.508c0.669-0.001,1.147-0.233,1.432-0.697c0.285-0.462,0.474-0.95,0.565-1.461
				c0.217-1.217,0.113-2.245-0.312-3.083c-0.424-0.838-1.051-1.682-1.879-2.532l-2.113-2.222c-0.931-0.947-1.665-2.022-2.204-3.225
				c-0.538-1.203-0.649-2.693-0.333-4.47c0.446-2.507,1.516-4.425,3.211-5.755c1.694-1.33,3.796-1.997,6.306-2.003
				c1.554-0.004,2.755,0.262,3.604,0.795c0.849,0.534,1.442,1.232,1.778,2.094c0.336,0.863,0.509,1.775,0.517,2.736
				c0.008,0.961-0.054,1.88-0.186,2.756l-5.645,0.706c0.132-0.876,0.214-1.637,0.245-2.282c0.031-0.644-0.053-1.143-0.253-1.496
				c-0.201-0.352-0.575-0.528-1.125-0.527c-0.598,0.001-1.08,0.258-1.445,0.77c-0.366,0.512-0.594,1.023-0.685,1.534
				c-0.195,1.095-0.098,1.989,0.293,2.682c0.39,0.693,0.936,1.416,1.639,2.168l2.019,2.148c1.072,1.092,1.92,2.331,2.546,3.717
				c0.625,1.385,0.757,3.1,0.392,5.145c-0.247,1.387-0.782,2.648-1.605,3.781c-0.823,1.133-1.861,2.03-3.113,2.689
				C238.11,312.331,236.707,312.663,235.154,312.666z"/>
			<path style="fill:#263238;" d="M245.415,312.206l5.264-29.573l6.418-0.014l-5.264,29.573L245.415,312.206z"/>
			<path style="fill:#263238;" d="M263.803,312.603c-1.817,0.004-3.276-0.321-4.379-0.976c-1.102-0.654-1.841-1.669-2.218-3.043
				c-0.377-1.374-0.406-3.156-0.088-5.346l5.635-0.852c-0.202,1.266-0.27,2.288-0.205,3.066c0.064,0.779,0.251,1.338,0.561,1.677
				c0.31,0.34,0.728,0.509,1.254,0.508c0.669-0.002,1.147-0.233,1.432-0.697c0.285-0.463,0.474-0.95,0.565-1.461
				c0.217-1.217,0.113-2.245-0.312-3.083c-0.424-0.838-1.051-1.682-1.879-2.532l-2.113-2.222c-0.931-0.947-1.665-2.022-2.204-3.225
				c-0.538-1.203-0.65-2.693-0.333-4.47c0.446-2.507,1.516-4.425,3.211-5.755c1.694-1.33,3.796-1.997,6.306-2.003
				c1.554-0.003,2.755,0.262,3.604,0.795c0.849,0.534,1.442,1.232,1.778,2.094c0.336,0.863,0.509,1.775,0.517,2.736
				c0.008,0.961-0.054,1.88-0.186,2.756l-5.645,0.706c0.132-0.876,0.214-1.637,0.245-2.282c0.031-0.644-0.053-1.143-0.253-1.496
				c-0.201-0.352-0.575-0.528-1.125-0.526c-0.598,0.001-1.08,0.258-1.445,0.77c-0.366,0.512-0.594,1.023-0.685,1.534
				c-0.195,1.095-0.098,1.989,0.293,2.682c0.39,0.693,0.936,1.416,1.639,2.168l2.019,2.148c1.072,1.092,1.92,2.331,2.546,3.717
				c0.626,1.385,0.757,3.1,0.393,5.145c-0.247,1.387-0.782,2.648-1.605,3.781c-0.823,1.133-1.861,2.029-3.113,2.689
				C266.759,312.268,265.356,312.599,263.803,312.603z"/>
		</g>
		<g>
			<path style="fill:#FFFFFF;stroke:#263238;stroke-linecap:round;stroke-linejoin:round;stroke-miterlimit:10;" d="
				M167.977,236.468c0-2.311-1.874-4.185-4.185-4.185s-4.185,1.874-4.185,4.185c0,2.311,1.874,4.185,4.185,4.185
				S167.977,238.779,167.977,236.468z"/>
			<path style="fill:#FFFFFF;stroke:#263238;stroke-linecap:round;stroke-linejoin:round;stroke-miterlimit:10;" d="M162.791,276.36
				c0-2.311-1.874-4.185-4.185-4.185s-4.185,1.874-4.185,4.185c0,2.311,1.874,4.185,4.185,4.185S162.791,278.671,162.791,276.36z"/>
			<path style="fill:#FFFFFF;stroke:#263238;stroke-linecap:round;stroke-linejoin:round;stroke-miterlimit:10;" d="
				M156.242,316.251c0-2.311-1.874-4.185-4.185-4.185c-2.311,0-4.185,1.874-4.185,4.185c0,2.311,1.874,4.185,4.185,4.185
				C154.368,320.436,156.242,318.563,156.242,316.251z"/>
			<path style="fill:#FFFFFF;stroke:#263238;stroke-linecap:round;stroke-linejoin:round;stroke-miterlimit:10;" d="
				M146.636,356.143c0-2.311-1.874-4.185-4.185-4.185c-2.311,0-4.185,1.874-4.185,4.185c0,2.311,1.874,4.185,4.185,4.185
				C144.762,360.328,146.636,358.454,146.636,356.143z"/>
			
				<circle style="fill:#FFFFFF;stroke:#263238;stroke-linecap:round;stroke-linejoin:round;stroke-miterlimit:10;" cx="133.974" cy="396.035" r="4.185"/>
			<path style="fill:#8C8C8C;stroke:#263238;stroke-linecap:round;stroke-linejoin:round;stroke-miterlimit:10;" d="
				M127.179,387.807c-4.639,0-8.413,3.851-8.413,8.585c0,3.045,1.591,5.797,4.029,7.325l0.904-3.18
				c-1.132-1.018-1.836-2.514-1.836-4.145c0-3.027,2.385-5.489,5.317-5.489c2.932,0,5.318,2.462,5.318,5.489
				c0,0.855,0.693,1.548,1.548,1.548c0.855,0,1.548-0.693,1.548-1.548C135.592,391.658,131.818,387.807,127.179,387.807z"/>
			<path style="fill:#8C8C8C;stroke:#263238;stroke-linecap:round;stroke-linejoin:round;stroke-miterlimit:10;" d="
				M135.656,347.915c-4.639,0-8.413,3.851-8.413,8.585c0,3.665,2.308,6.899,5.621,8.092l0.669-3.072
				c-1.898-0.858-3.194-2.811-3.194-5.02c0-3.027,2.385-5.489,5.317-5.489c2.932,0,5.318,2.462,5.318,5.489
				c0,0.855,0.693,1.548,1.548,1.548c0.855,0,1.548-0.693,1.548-1.548C144.07,351.766,140.295,347.915,135.656,347.915z"/>
			<path style="fill:#8C8C8C;stroke:#263238;stroke-linecap:round;stroke-linejoin:round;stroke-miterlimit:10;" d="
				M145.262,308.023c-4.639,0-8.413,3.851-8.413,8.585c0,3.622,2.253,6.823,5.502,8.049l0.656-3.098
				c-1.824-0.889-3.062-2.796-3.062-4.952c0-3.027,2.385-5.489,5.317-5.489c2.932,0,5.318,2.463,5.318,5.489
				c0,0.855,0.693,1.548,1.548,1.548c0.855,0,1.548-0.693,1.548-1.548C153.675,311.875,149.901,308.023,145.262,308.023z"/>
			<path style="fill:#8C8C8C;stroke:#263238;stroke-linecap:round;stroke-linejoin:round;stroke-miterlimit:10;" d="
				M151.811,268.131c-4.639,0-8.413,3.851-8.413,8.585c0,3.859,2.556,7.242,6.152,8.265l0.461-3.111
				c-2.074-0.773-3.517-2.822-3.517-5.154c0-3.027,2.385-5.489,5.317-5.489c2.932,0,5.318,2.462,5.318,5.489
				c0,0.855,0.693,1.548,1.548,1.548c0.855,0,1.548-0.693,1.548-1.548C160.225,271.983,156.451,268.131,151.811,268.131z"/>
			<path style="fill:#8C8C8C;stroke:#263238;stroke-linecap:round;stroke-linejoin:round;stroke-miterlimit:10;" d="M156.997,228.24
				c-4.639,0-8.413,3.851-8.413,8.585c0,3.685,2.332,6.933,5.674,8.111l0.396-3.204c-1.775-0.908-2.974-2.786-2.974-4.906
				c0-3.027,2.385-5.489,5.317-5.489c2.932,0,5.318,2.463,5.318,5.489c0,0.855,0.693,1.548,1.548,1.548
				c0.855,0,1.548-0.693,1.548-1.548C165.411,232.091,161.637,228.24,156.997,228.24z"/>
		</g>
	</g>
</g>
<g id="Character">
	<g>
		<path style="fill:#263238;stroke:#263238;stroke-linecap:round;stroke-linejoin:round;stroke-miterlimit:10;" d="M404.412,231.591
			c0,0,2.943,1.569,3.71-3.505c0.767-5.074-2.841-5.177-3.458-8.757c-0.617-3.58-0.746-6.939-7.305-8.85
			c-6.56-1.911-8.83,1.539-10.427,3.762c-1.597,2.223-5.499,0.691-11.848,4.297c-6.349,3.606-6.913,7.712-7.079,9.64
			c-0.167,1.928-4.624,4.741-7.504,11.098c-2.88,6.357-0.897,7.962-1.294,10.14c-0.397,2.177-6.283-0.961-9.385,5.885
			s2.922,13.582,2.922,13.582s-7.695-0.186-8.823,8.025c-1.128,8.212,3.107,12.134,7.461,12.928
			c4.355,0.795,9.44-4.445,10.777-0.892c1.337,3.553-0.426,7.704,9.659,7.559c10.085-0.145,11.793-5.736,11.674-8.855
			c-0.119-3.119,0.879-8.442,4.255-8.091s8.6-1.29,10.713-2.572c2.113-1.282,5.204-2.121,6.561-4.335
			c1.357-2.214,3.221-3.727,3.314-7.574s-4.863-7.928-2.758-9.357c2.105-1.429,5.491-0.838,4.542-6.808
			c-0.949-5.97-3.164-6.158-4.925-9.422C403.433,236.226,404.412,231.591,404.412,231.591z"/>
		<path style="fill:#FFFFFF;stroke:#263238;stroke-linecap:round;stroke-linejoin:round;stroke-miterlimit:10;" d="M418.197,341.976
			c0,0,34.02,3.376,36.326,6.565c2.306,3.189,33.319,42.333,34.997,43.361c1.678,1.028,1.678,1.028,1.678,1.028
			s13.037-8.963,15.114-11.773c2.077-2.81,1.561,5.129-0.212,8.746c-1.773,3.618-5.141,7.617-8.194,11.942
			c-1.643,2.327-2.339,5.39-6.177,4.991c-3.838-0.399-4.005-4.762-7.412-8.181c-3.408-3.42-19.628-13.449-28.3-18.852
			c-8.671-5.403-10.73-13.825-10.73-13.825l-41.008-4.127l0.041-4.325c0,0,1.48-4.152,4.899-7.56"/>
		<path style="fill:#FFFFFF;stroke:#263238;stroke-linecap:round;stroke-linejoin:round;stroke-miterlimit:10;" d="M506.312,381.156
			c-2.077,2.81-15.115,11.773-15.115,11.773s0,0-1.678-1.028c-0.484-0.297-3.412-3.769-7.386-8.632
			c-2.527,1.15-5.791,3.466-7.914,8.06c4.678,3.078,8.609,5.831,10.097,7.324c3.407,3.419,3.574,7.782,7.412,8.182
			c3.838,0.399,4.535-2.663,6.177-4.991c3.053-4.326,6.421-8.325,8.194-11.942C507.873,386.284,508.389,378.346,506.312,381.156z"/>
		<path style="fill:#92E3A9;stroke:#263238;stroke-linecap:round;stroke-linejoin:round;stroke-miterlimit:10;" d="M506.312,381.156
			c-2.077,2.81-15.114,11.773-15.114,11.773s-0.983,0.261-0.07,2.184c0.913,1.924,0.913,1.924,0.913,1.924l-5.494,4.571
			c1.549,2.577,2.408,4.939,5.183,5.227c3.838,0.399,4.535-2.663,6.177-4.991c3.053-4.326,6.421-8.325,8.194-11.942
			C507.873,386.284,508.389,378.346,506.312,381.156z"/>
		<path style="fill:#FFFFFF;stroke:#263238;stroke-linecap:round;stroke-linejoin:round;stroke-miterlimit:10;" d="M506.312,381.156
			c-0.133,0.181-0.314,0.388-0.531,0.615c-0.174,1.444-0.353,3.011-0.477,4.314c-0.325,3.44-4.205,9.528-8.822,14.274
			c-2.336,2.401-4.801,4.395-6.67,5.782c0.531,0.361,1.145,0.613,1.917,0.694c3.838,0.399,4.535-2.663,6.177-4.991
			c3.053-4.326,6.421-8.325,8.194-11.942C507.873,386.284,508.389,378.346,506.312,381.156z"/>
		<path style="fill:#FFFFFF;stroke:#263238;stroke-linecap:round;stroke-linejoin:round;stroke-miterlimit:10;" d="M387.677,268.223
			c0,0-11.455-9.74-13.425-13.962c-1.971-4.222-11.026-22.196-16.028-28.79c-5.002-6.594-15.005-19.782-15.708-20.433
			c-0.703-0.652-1.207-1.989-3.083-3.727c-1.876-1.738-7.391-4.015-9.215-4.397s-2.946,5.767-3.303,8.268
			c-0.357,2.501,1.519,4.239,3.795,4.604c2.276,0.365,7.305,1.756,7.305,1.756s13.04,27.547,16.375,31.943
			c3.334,4.396,16.878,33.281,18.362,36.616c1.484,3.336,6.424,14.229,6.685,15.124c0.26,0.895-0.35,8.608-2.661,13.22
			c-2.312,4.612-11.765,17.639-14.833,26.124s-0.951,16.547,5.146,22.194c6.096,5.647,17.171,5.45,22.157,5.712
			c4.986,0.262,29.585-1.131,29.585-1.131s2.704-12.09,1.431-27.648c-1.273-15.557-1.56-17.129-1.575-23.462
			c-0.016-6.332-1.401-24.825-1.401-24.825s8.631-22.721,10.682-28.227c2.051-5.506,12.07-21.495,12.766-26.95
			c0.696-5.455,9.615-32.484,9.615-32.484s5.811-1.805,6.229-2.726c0.417-0.921,1.608-5.263,1.808-5.95
			c0.2-0.686-6.219-2.929-7.591-3.328c-1.372-0.4-5.239,4.95-5.83,7.234c-0.591,2.284-6.431,15.173-9.846,20.506
			c-3.415,5.332-7.838,13.87-9.246,18.447c-1.408,4.577-2.816,9.154-2.816,9.154l-15.875,22.546l-2.815,3.274
			C404.363,266.907,396.458,273.09,387.677,268.223z"/>
		<g>
			<path style="fill:#FFFFFF;stroke:#263238;stroke-linecap:round;stroke-linejoin:round;stroke-miterlimit:10;" d="M330.71,209.787
				c2.276,0.365,7.305,1.756,7.305,1.756s13.04,27.547,16.375,31.943c2.154,2.84,8.567,15.896,13.239,25.686l11.646-8.731
				c-2.265-2.3-4.293-4.617-5.022-6.179c-1.971-4.222-11.026-22.196-16.028-28.79c-5.002-6.594-15.005-19.782-15.708-20.433
				c-0.703-0.652-1.207-1.989-3.083-3.727c-1.876-1.738-7.391-4.015-9.215-4.397s-2.946,5.767-3.303,8.268
				C326.559,207.684,328.434,209.421,330.71,209.787z"/>
		</g>
		<path style="fill:#FFFFFF;stroke:#263238;stroke-linecap:round;stroke-linejoin:round;stroke-miterlimit:10;" d="M450.347,197.75
			c0,0,5.811-1.805,6.229-2.726c0.417-0.921,1.608-5.263,1.808-5.95c0.2-0.686-6.219-2.929-7.591-3.328
			c-1.372-0.4-5.239,4.95-5.83,7.234s-6.431,15.173-9.846,20.506c-3.415,5.332-7.838,13.87-9.246,18.447
			c-1.408,4.577-2.816,9.154-2.816,9.154l-13.12,18.633l15.626,3.859c1.04-2.754,1.914-5.073,2.407-6.396
			c2.051-5.507,12.07-21.495,12.766-26.95S450.347,197.75,450.347,197.75z"/>
		<path style="fill:#FFFFFF;stroke:#263238;stroke-linecap:round;stroke-linejoin:round;stroke-miterlimit:10;" d="M387.594,254.204
			l0.084,14.02c0,0,4.367,7.749,8.876,7.35c4.508-0.398,7.811-8.667,7.811-8.667l-1.995-10.78
			C402.368,256.127,391.771,256.984,387.594,254.204z"/>
		<g>
			<path style="fill:#FFFFFF;stroke:#263238;stroke-linecap:round;stroke-linejoin:round;stroke-miterlimit:10;" d="
				M391.689,226.189c0,0-3.343-0.571-5.33,2.301c-1.987,2.872-1.216,4.765-1.761,8.806c-0.545,4.041-4.264,7.329-5.815,7.912
				c-1.551,0.584-4.625,2.449-4.625,2.449s0.845,3.813,2.469,5.149s4.175-0.509,4.175-0.509s4.543,4.545,8.805,6.305
				c4.262,1.76,12.686,2.661,15.969-2.883c3.284-5.543,1.098-16.995-0.337-22.533s-3.73-6.149-3.73-6.149
				S395.093,223.787,391.689,226.189z"/>
			<path style="fill:none;stroke:#263238;stroke-linecap:round;stroke-linejoin:round;stroke-miterlimit:10;" d="M387.893,241.19
				c0,0,1.269-3.369,4.974-2.462"/>
			<path style="fill:none;stroke:#263238;stroke-linecap:round;stroke-linejoin:round;stroke-miterlimit:10;" d="M399.607,236.722
				c0,0,2.021-2,3.826-0.496"/>
			<path style="fill:none;stroke:#263238;stroke-linecap:round;stroke-linejoin:round;stroke-miterlimit:10;" d="M397.312,236.111
				c0,0,1.839,2.377,3.449,3.364c1.611,0.987,3.201,1.451,2.557,2.873c-0.645,1.423-2.39,1.49-3.444,1.355"/>
			<path style="fill:#263238;stroke:#263238;stroke-linecap:round;stroke-linejoin:round;stroke-miterlimit:10;" d="
				M401.746,246.952c-4.813,2.107-8.088-1.264-8.088-1.264s0.2,5.236,2.992,5.129C399.443,250.71,401.746,246.952,401.746,246.952z"
				/>
			<path style="fill:none;stroke:#263238;stroke-linecap:round;stroke-linejoin:round;stroke-miterlimit:10;" d="M395.324,238.983
				c-0.114-2.988-2.629-5.317-5.617-5.203c-2.988,0.114-5.318,2.629-5.203,5.617s2.629,5.318,5.617,5.203
				C393.109,244.486,395.439,241.971,395.324,238.983z"/>
			<path style="fill:none;stroke:#263238;stroke-linecap:round;stroke-linejoin:round;stroke-miterlimit:10;" d="M408.253,234.294
				c-0.114-2.988-2.629-5.317-5.617-5.203c-2.988,0.114-5.318,2.629-5.203,5.617s2.629,5.318,5.617,5.203
				C406.038,239.797,408.367,237.282,408.253,234.294z"/>
			
				<line style="fill:none;stroke:#263238;stroke-linecap:round;stroke-linejoin:round;stroke-miterlimit:10;" x1="384.933" y1="241.478" x2="378.784" y2="245.208"/>
			<path style="fill:none;stroke:#263238;stroke-linecap:round;stroke-linejoin:round;stroke-miterlimit:10;" d="M395.052,237.49
				c-0.057-0.426,1.082-2.595,2.828-0.794"/>
			<path style="fill:none;stroke:#263238;stroke-linecap:round;stroke-linejoin:round;stroke-miterlimit:10;" d="M385.621,233.434
				c0,0,1.192-3.901,4.713-3.868"/>
			<path style="fill:none;stroke:#263238;stroke-linecap:round;stroke-linejoin:round;stroke-miterlimit:10;" d="M398.67,227.739
				c0,0,2.468-1.435,5.066,0.98"/>
		</g>
		<path style="fill:#FFFFFF;stroke:#263238;stroke-linecap:round;stroke-linejoin:round;stroke-miterlimit:10;" d="M332.87,196.1
			c0,0-4.119-2.484-4.979-1.948c-0.86,0.536-1.764,3.211-0.981,3.936c0.782,0.725,5.177,0.557,5.936,0.654
			C333.603,198.839,332.87,196.1,332.87,196.1z"/>
		<path style="fill:#FFFFFF;stroke:#263238;stroke-linecap:round;stroke-linejoin:round;stroke-miterlimit:10;" d="M333.434,197.713
			c0,0-5.718-1.542-6.457-1.137c-0.739,0.406-1.271,2.941-1.112,3.815c0.159,0.874,5.583,1.296,6.95,0.866
			C334.182,200.829,334.888,199.544,333.434,197.713z"/>
		<path style="fill:#FFFFFF;stroke:#263238;stroke-linecap:round;stroke-linejoin:round;stroke-miterlimit:10;" d="M335.428,200.529
			c0,0-7.351-1.48-8.457-0.809s-1.348,0.932-1.295,2.313s-0.019,3.5,1.238,3.148c1.258-0.351,7.29-0.456,7.884-1.359
			C335.394,202.92,335.428,200.529,335.428,200.529z"/>
		<path style="fill:#FFFFFF;stroke:#263238;stroke-linecap:round;stroke-linejoin:round;stroke-miterlimit:10;" d="M328.336,209.101
			c0,0-2.25-2.932-2.279-3.686c-0.029-0.753,1.02-2.931,1.768-3.086c0.749-0.154,7.327,0.852,6.974,1.494
			c-0.353,0.642,0.038,1.005-1.464,1.188c-1.502,0.183-2.999,0.492-2.999,0.492s3.438,1.126,4.322,1.218"/>
		<path style="fill:#FFFFFF;stroke:#263238;stroke-linecap:round;stroke-linejoin:round;stroke-miterlimit:10;" d="M342.516,205.038
			c0,0-1.635-3.334-2.069-4.827c-0.434-1.492-6.364-5.29-7.263-5.759c-0.898-0.469-1.909,5.984-1.847,7.616
			c0.062,1.633,1.115,2.85,1.709,1.947c0.594-0.903,1.136-3.187,1.136-3.187s0.589,2.241,1.641,3.459
			c1.053,1.217,3.323,1.382,3.323,1.382"/>
		<g>
			<path style="fill:#FFFFFF;stroke:#263238;stroke-linecap:round;stroke-linejoin:round;stroke-miterlimit:10;" d="
				M452.876,184.746c0,0,3.538-2.52,4.349-2.097c0.811,0.423,1.809,2.77,1.155,3.477c-0.654,0.706-4.624,0.858-5.3,0.997
				C452.405,187.263,452.876,184.746,452.876,184.746z"/>
			<path style="fill:#FFFFFF;stroke:#263238;stroke-linecap:round;stroke-linejoin:round;stroke-miterlimit:10;" d="
				M452.479,186.238c0,0,5.043-1.783,5.736-1.469c0.693,0.314,1.347,2.561,1.264,3.359c-0.083,0.798-4.938,1.552-6.198,1.259
				C452.02,189.095,451.296,187.987,452.479,186.238z"/>
			<path style="fill:#FFFFFF;stroke:#263238;stroke-linecap:round;stroke-linejoin:round;stroke-miterlimit:10;" d="
				M450.878,188.911c0,0,6.517-1.839,7.559-1.311s1.278,0.746,1.325,1.994c0.048,1.247,0.259,3.15-0.898,2.92
				s-6.596,0.092-7.193-0.68C451.073,191.061,450.878,188.911,450.878,188.911z"/>
			<path style="fill:#FFFFFF;stroke:#263238;stroke-linecap:round;stroke-linejoin:round;stroke-miterlimit:10;" d="
				M453.759,196.392c0,0,5.92-3.047,5.894-3.728s-1.12-2.569-1.805-2.657c-0.685-0.087-6.538,1.272-6.177,1.826
				c0.362,0.554,0.035,0.907,1.4,0.969c1.365,0.061,2.735,0.236,2.735,0.236s-3.019,1.251-3.808,1.395"/>
			<path style="fill:#FFFFFF;stroke:#263238;stroke-linecap:round;stroke-linejoin:round;stroke-miterlimit:10;" d="M444.807,193.46
				c0,0,1.242-3.115,1.53-4.488c0.288-1.374,5.366-5.202,6.142-5.686c0.777-0.484,2.132,5.256,2.188,6.73
				c0.056,1.474-0.807,2.643-1.405,1.871c-0.597-0.772-1.242-2.792-1.242-2.792s-0.376,2.059-1.24,3.227
				c-0.864,1.169-2.896,1.474-2.896,1.474"/>
		</g>
		<g>
			<path style="fill:#92E3A9;stroke:#263238;stroke-linecap:round;stroke-linejoin:round;stroke-miterlimit:10;" d="
				M418.884,247.009l-11.706,16.624l-2.815,3.274c0,0-7.906,6.183-16.686,1.316c0,0-11.455-9.74-13.425-13.962
				c-0.489-1.048-1.416-2.946-2.609-5.305c-4.417,1.863-7.875,5.118-10.106,7.698c4.848,9.728,10.303,21.4,11.214,23.447
				c1.484,3.336,6.424,14.229,6.685,15.124c0.26,0.895-0.349,8.608-2.661,13.22c-1.707,3.406-7.309,11.402-11.358,18.769
				c23.27,10.333,45.871,5.796,54.584,3.34c-1.053-12.657-1.301-14.442-1.316-20.318c-0.016-6.332,0.844-31.304,0.844-31.304
				s6.386-16.243,8.437-21.749c0.234-0.629,0.577-1.4,0.993-2.272C425.758,249.942,422.019,247.827,418.884,247.009z"/>
			<path style="fill:none;stroke:#263238;stroke-linecap:round;stroke-linejoin:round;stroke-miterlimit:10;" d="M386.286,270.936
				c0,0,6.888,10.332,15.306,13.776"/>
			<path style="fill:none;stroke:#263238;stroke-linecap:round;stroke-linejoin:round;stroke-miterlimit:10;" d="M407.179,263.633
				c0,0,0.504,4.609-2.159,9.017"/>
			<path style="fill:none;stroke:#263238;stroke-linecap:round;stroke-linejoin:round;stroke-miterlimit:10;" d="M395.401,294.931
				c0.895,1.058,1.815,2.007,2.748,2.792"/>
			<path style="fill:none;stroke:#263238;stroke-linecap:round;stroke-linejoin:round;stroke-miterlimit:10;" d="M384.373,275.528
				c0,0,4.002,9.888,9.237,17.107"/>
		</g>
		<path style="fill:#FFFFFF;stroke:#263238;stroke-linecap:round;stroke-linejoin:round;stroke-miterlimit:10;" d="M382.006,345.271
			c0,0,34.198,1.697,36.839,6.511c2.642,4.814,9.374,52.343,10.662,57.482c1.289,5.139,3.972,11.044,4.811,11.558
			c0.839,0.514,19.927-7.315,19.738-5.124c-0.189,2.192-5.696,8.137-10.417,13.232c-4.72,5.096-10.038,8.849-11.412,8.628
			c-1.374-0.221-8.46-14.149-14.057-24.857s-10.462-16.53-13.878-27.322c-3.416-10.792-3.854-22.244-3.854-22.244
			s-20.062,3.771-28.724-1.36c-8.661-5.13-13.074-13.426-9.894-23.105"/>
		<path style="fill:#FFFFFF;stroke:#263238;stroke-linecap:round;stroke-linejoin:round;stroke-miterlimit:10;" d="M434.318,420.82
			c-0.839-0.514-3.522-6.419-4.811-11.558c-0.177-0.704-0.456-2.208-0.812-4.285c-4.681,1.809-8.254,4.69-10.753,7.293
			c0.077,0.145,0.152,0.282,0.228,0.429c5.598,10.708,12.683,24.637,14.057,24.857c1.374,0.22,6.691-3.533,11.412-8.628
			c4.72-5.095,10.227-11.04,10.417-13.232C454.245,413.505,435.157,421.334,434.318,420.82z"/>
		<g>
			<path style="fill:#92E3A9;stroke:#263238;stroke-linecap:round;stroke-linejoin:round;stroke-miterlimit:10;" d="
				M431.775,423.402c0.375,2.504,1.267,3.868,1.267,3.868l-4.905,4.241c1.994,3.546,3.525,5.955,4.09,6.046
				c1.374,0.22,6.691-3.533,11.412-8.628c4.72-5.096,10.227-11.04,10.417-13.232c0.189-2.192-18.899,5.638-19.738,5.124
				C434.318,420.82,431.4,420.898,431.775,423.402z"/>
			<path style="fill:#FFFFFF;stroke:#263238;stroke-linecap:round;stroke-linejoin:round;stroke-miterlimit:10;" d="
				M453.778,415.371c-13.377,13.996-19.889,18.947-22.907,20.679c0.622,0.912,1.096,1.465,1.356,1.507
				c1.374,0.22,6.691-3.533,11.412-8.628c4.72-5.096,10.227-11.04,10.417-13.232C454.07,415.533,453.964,415.431,453.778,415.371z"
				/>
		</g>
		<g>
			<polygon style="fill:#D1D1D1;stroke:#263238;stroke-linecap:round;stroke-linejoin:round;stroke-miterlimit:10;" points="
				407.432,348.87 381.681,341.19 426.362,336.443 450.869,344.256 			"/>
			<polygon style="fill:#D1D1D1;stroke:#263238;stroke-linecap:round;stroke-linejoin:round;stroke-miterlimit:10;" points="
				450.869,344.256 407.432,348.87 414.807,316.468 459.636,314.172 			"/>
		</g>
	</g>
</g>
</svg>
