<?xml version="1.0" encoding="utf-8"?>
<!-- Generator: Adobe Illustrator 27.5.0, SVG Export Plug-In . SVG Version: 6.00 Build 0)  -->
<svg version="1.1" xmlns="http://www.w3.org/2000/svg" xmlns:xlink="http://www.w3.org/1999/xlink" x="0px" y="0px"
	 viewBox="0 0 500 500" style="enable-background:new 0 0 500 500;" xml:space="preserve">
<g id="Background_Simple">
	<g>
		<path style="fill:#92E3A9;" d="M452.282,118.763c-1.659-2.762-3.384-5.472-5.186-8.122c-23.997-35.26-63.947-59.4-102.773-70.333
			c-17.009-4.797-34.472-7.306-51.905-7.947c-114.344-4.155-156.35,90.124-193.19,114.432
			c-36.84,24.309-93.374,65.829-86.28,153.049c5.383,66.316,43.109,129.726,112.009,158.581c7.589,3.188,15.563,5.955,23.912,8.251
			c15.531,4.273,32.363,6.955,50.5,7.762c52.092,2.321,94.389-10.236,135.763-41.857c9.617-7.35,19.183-15.641,31.664-16.549
			c9.072-0.66,17.673,2.599,8.19,11.366c-11.145,10.305,1.715,30.572,30.006,16.491c47.251-23.517,66.689-74.256,75.846-125.85
			C492.078,254.708,486.629,175.952,452.282,118.763z"/>
		<path style="opacity:0.7;fill:#FFFFFF;" d="M452.282,118.763c-1.659-2.762-3.384-5.472-5.186-8.122
			c-23.997-35.26-63.947-59.4-102.773-70.333c-17.009-4.797-34.472-7.306-51.905-7.947c-114.344-4.155-156.35,90.124-193.19,114.432
			c-36.84,24.309-93.374,65.829-86.28,153.049c5.383,66.316,43.109,129.726,112.009,158.581c7.589,3.188,15.563,5.955,23.912,8.251
			c15.531,4.273,32.363,6.955,50.5,7.762c52.092,2.321,94.389-10.236,135.763-41.857c9.617-7.35,19.183-15.641,31.664-16.549
			c9.072-0.66,17.673,2.599,8.19,11.366c-11.145,10.305,1.715,30.572,30.006,16.491c47.251-23.517,66.689-74.256,75.846-125.85
			C492.078,254.708,486.629,175.952,452.282,118.763z"/>
	</g>
</g>
<g id="Floor_1_">
	<g>
		
			<line style="fill:none;stroke:#263238;stroke-linecap:round;stroke-linejoin:round;stroke-miterlimit:10;" x1="39.123" y1="400.83" x2="475.756" y2="400.83"/>
		
			<line style="fill:none;stroke:#263238;stroke-linecap:round;stroke-linejoin:round;stroke-miterlimit:10;" x1="22.922" y1="400.83" x2="32.197" y2="400.83"/>
	</g>
</g>
<g id="Plant">
	<g>
		<path style="fill:#92E3A9;stroke:#263238;stroke-linecap:round;stroke-linejoin:round;stroke-miterlimit:10;" d="M399.054,278.782
			c0,0-2.51,6.902-7.843,7.843c-5.333,0.941-14.746-9.412-8.785-14.746C388.387,266.547,396.544,275.017,399.054,278.782z"/>
		<path style="fill:#92E3A9;stroke:#263238;stroke-linecap:round;stroke-linejoin:round;stroke-miterlimit:10;" d="M407.211,244.899
			c0,0-7.844,19.138-4.706,28.55c3.137,9.412,22.589,16.314,28.236,4.079c5.647-12.236-6.902-29.491-11.608-33.256
			C414.427,240.506,408.78,241.761,407.211,244.899z"/>
		<path style="fill:#92E3A9;stroke:#263238;stroke-linecap:round;stroke-linejoin:round;stroke-miterlimit:10;" d="M453.017,253.056
			c0,0-13.491,12.236-15.059,24.471c-1.569,12.236,7.53,16.628,16.942,15.059c9.412-1.569,14.118-25.412,11.294-36.393
			C463.37,245.212,453.017,253.056,453.017,253.056z"/>
		<path style="fill:#92E3A9;stroke:#263238;stroke-linecap:round;stroke-linejoin:round;stroke-miterlimit:10;" d="M455.527,320.823
			c0,0-15.059,0.628-15.687,7.844c-0.627,7.216,6.588,8.785,13.804,2.51C460.86,324.901,461.801,321.136,455.527,320.823z"/>
		<path style="fill:none;stroke:#263238;stroke-linecap:round;stroke-linejoin:round;stroke-miterlimit:10;" d="M440.089,330.386
			c0,0,11.868-5.43,17.213-6.373"/>
		<path style="fill:#92E3A9;stroke:#263238;stroke-linecap:round;stroke-linejoin:round;stroke-miterlimit:10;" d="M418.192,335.882
			c0,0-1.569,7.53-7.216,10.353c-5.647,2.823-15.687-3.137-10.353-12.236C405.956,324.901,415.368,332.117,418.192,335.882z"/>
		<path style="fill:#92E3A9;stroke:#263238;stroke-linecap:round;stroke-linejoin:round;stroke-miterlimit:10;" d="M405.015,312.352
			c0,0-2.824-6.275-13.804-2.196c-10.981,4.079-15.373,10.353-8.471,12.549C389.642,324.901,405.015,312.352,405.015,312.352z"/>
		<path style="fill:none;stroke:#263238;stroke-linecap:round;stroke-linejoin:round;stroke-miterlimit:10;" d="M402.913,312.066
			c0,0-11.632,1.258-17.92,6.602"/>
		<path style="fill:#92E3A9;stroke:#263238;stroke-linecap:round;stroke-linejoin:round;stroke-miterlimit:10;" d="M436.389,237.055
			c0,0,1.882,4.392,5.647,3.451c3.765-0.941,4.706-6.589,10.667-5.02c5.961,1.569,10.98,8.471,10.98,5.334
			c0-3.138-7.53-11.295-16-11.295C439.212,229.526,436.702,232.977,436.389,237.055z"/>
		<path style="fill:none;stroke:#263238;stroke-linecap:round;stroke-linejoin:round;stroke-miterlimit:10;" d="M428.838,362.733
			c0,0,1.406-26.253,0-42.661c-1.407-16.408-7.97-35.629-7.97-35.629l-7.895-35.256"/>
		<path style="fill:none;stroke:#263238;stroke-linecap:round;stroke-linejoin:round;stroke-miterlimit:10;" d="M432.119,362.733
			c0,0,0.469-21.565,2.344-35.629c1.875-14.064,9.376-36.098,9.376-36.098l14.091-30.186"/>
		<path style="fill:none;stroke:#263238;stroke-linecap:round;stroke-linejoin:round;stroke-miterlimit:10;" d="M440.089,330.386
			c0,0-3.281,0.938-5.156,32.816"/>
		<path style="fill:none;stroke:#263238;stroke-linecap:round;stroke-linejoin:round;stroke-miterlimit:10;" d="M424.15,362.264
			c0,0,0.938-16.877-0.938-22.971c-1.875-6.095-5.02-3.411-5.02-3.411s-8.677,1.021-11.821,6.051"/>
		<path style="fill:none;stroke:#263238;stroke-linecap:round;stroke-linejoin:round;stroke-miterlimit:10;" d="M426.304,332.862
			c2.453,13.743,0.19,28.934,0.19,28.934"/>
		<path style="fill:none;stroke:#263238;stroke-linecap:round;stroke-linejoin:round;stroke-miterlimit:10;" d="M405.015,312.352
			c0,0,13.509-2.593,19.135,12.408c0.552,1.472,1.018,3.011,1.41,4.591"/>
		<path style="fill:#92E3A9;stroke:#263238;stroke-linecap:round;stroke-linejoin:round;stroke-miterlimit:10;" d="M461.395,297.819
			c0,0,2.823-6.275,13.804-2.196c10.981,4.079,15.373,10.353,8.471,12.549C476.768,310.368,461.395,297.819,461.395,297.819z"/>
		<path style="fill:none;stroke:#263238;stroke-linecap:round;stroke-linejoin:round;stroke-miterlimit:10;" d="M463.904,298.233
			c0,0,11.318-0.629,16.663,5.973"/>
		<path style="fill:none;stroke:#263238;stroke-linecap:round;stroke-linejoin:round;stroke-miterlimit:10;" d="M449.386,300.567
			c-2.715,1.858-5.324,4.858-7.126,9.661c-5.625,15.001-4.984,52.037-4.984,52.037"/>
		<path style="fill:none;stroke:#263238;stroke-linecap:round;stroke-linejoin:round;stroke-miterlimit:10;" d="M461.395,297.819
			c0,0-4.478-0.86-9.352,1.274"/>
		<path style="fill:none;stroke:#263238;stroke-linecap:round;stroke-linejoin:round;stroke-miterlimit:10;" d="M413.849,288.353
			c2.931,3.441,5.772,8.094,7.957,14.374c7.501,21.565,10.313,49.224,8.907,59.538"/>
		<path style="fill:none;stroke:#263238;stroke-linecap:round;stroke-linejoin:round;stroke-miterlimit:10;" d="M412.217,286.564
			c-6.622-6.762-13.163-7.782-13.163-7.782s-9.66-2.557-13.433,0.902"/>
		<path style="fill:none;stroke:#263238;stroke-linecap:round;stroke-linejoin:round;stroke-miterlimit:10;" d="M432.899,308.534
			c-0.457,27.216-0.78,54.199-0.78,54.199"/>
		<path style="fill:none;stroke:#263238;stroke-linecap:round;stroke-linejoin:round;stroke-miterlimit:10;" d="M432.957,305.148
			c0.309-17.997,0.674-35.609,1.038-45.082c0.938-24.378,2.394-23.01,2.394-23.01s1.735-5.473,11.482-4.845"/>
		<path style="fill:#263238;stroke:#263238;stroke-linecap:round;stroke-linejoin:round;stroke-miterlimit:10;" d="M447.136,410.55
			h-30.503c-2.092,0-3.842-1.589-4.044-3.671l-4.378-45.084h47.349l-4.379,45.084C450.979,408.962,449.229,410.55,447.136,410.55z"
			/>
		<g>
			<polygon style="fill:#FFFFFF;stroke:#263238;stroke-linecap:round;stroke-linejoin:round;stroke-miterlimit:10;" points="
				409.622,376.328 410.123,381.485 453.647,381.485 454.148,376.328 			"/>
			<polygon style="fill:#FFFFFF;stroke:#263238;stroke-linecap:round;stroke-linejoin:round;stroke-miterlimit:10;" points="
				452.555,392.736 452.828,389.923 410.942,389.923 411.216,392.736 			"/>
		</g>
	</g>
</g>
<g id="Graphics">
	<g>
		<g>
			
				<line style="fill:none;stroke:#263238;stroke-linecap:round;stroke-linejoin:round;stroke-miterlimit:10;" x1="56.699" y1="186.669" x2="56.699" y2="195.539"/>
			
				<line style="fill:none;stroke:#263238;stroke-linecap:round;stroke-linejoin:round;stroke-miterlimit:10;" x1="61.134" y1="191.104" x2="52.264" y2="191.104"/>
		</g>
		<g>
			
				<line style="fill:none;stroke:#263238;stroke-linecap:round;stroke-linejoin:round;stroke-miterlimit:10;" x1="433.886" y1="209.516" x2="433.886" y2="218.387"/>
			
				<line style="fill:none;stroke:#263238;stroke-linecap:round;stroke-linejoin:round;stroke-miterlimit:10;" x1="438.321" y1="213.952" x2="429.451" y2="213.952"/>
		</g>
		<g>
			
				<line style="fill:none;stroke:#263238;stroke-linecap:round;stroke-linejoin:round;stroke-miterlimit:10;" x1="386.176" y1="107.171" x2="386.176" y2="116.041"/>
			
				<line style="fill:none;stroke:#263238;stroke-linecap:round;stroke-linejoin:round;stroke-miterlimit:10;" x1="390.611" y1="111.605" x2="381.741" y2="111.605"/>
		</g>
		<g>
			
				<line style="fill:none;stroke:#263238;stroke-linecap:round;stroke-linejoin:round;stroke-miterlimit:10;" x1="206.878" y1="55.613" x2="206.878" y2="64.483"/>
			
				<line style="fill:none;stroke:#263238;stroke-linecap:round;stroke-linejoin:round;stroke-miterlimit:10;" x1="211.313" y1="60.048" x2="202.443" y2="60.048"/>
		</g>
		<g>
			
				<line style="fill:none;stroke:#263238;stroke-linecap:round;stroke-linejoin:round;stroke-miterlimit:10;" x1="151.473" y1="376.097" x2="151.473" y2="384.967"/>
			
				<line style="fill:none;stroke:#263238;stroke-linecap:round;stroke-linejoin:round;stroke-miterlimit:10;" x1="155.908" y1="380.532" x2="147.038" y2="380.532"/>
		</g>
		<g>
			
				<line style="fill:none;stroke:#263238;stroke-linecap:round;stroke-linejoin:round;stroke-miterlimit:10;" x1="41.431" y1="311.862" x2="41.431" y2="320.733"/>
			
				<line style="fill:none;stroke:#263238;stroke-linecap:round;stroke-linejoin:round;stroke-miterlimit:10;" x1="45.867" y1="316.298" x2="36.996" y2="316.298"/>
		</g>
		
			<ellipse transform="matrix(0.229 -0.9734 0.9734 0.229 191.7379 399.4838)" style="fill:none;stroke:#263238;stroke-linecap:round;stroke-linejoin:round;stroke-miterlimit:10;" cx="348.062" cy="78.698" rx="7.333" ry="7.333"/>
		
			<ellipse transform="matrix(0.229 -0.9734 0.9734 0.229 -112.1972 609.8055)" style="fill:none;stroke:#263238;stroke-linecap:round;stroke-linejoin:round;stroke-miterlimit:10;" cx="328.87" cy="375.733" rx="7.333" ry="7.333"/>
		
			<ellipse transform="matrix(0.9239 -0.3827 0.3827 0.9239 -91.9698 33.7012)" style="fill:none;stroke:#263238;stroke-linecap:round;stroke-linejoin:round;stroke-miterlimit:10;" cx="38.729" cy="248.032" rx="7.333" ry="7.333"/>
		<path style="fill:none;stroke:#263238;stroke-linecap:round;stroke-linejoin:round;stroke-miterlimit:10;" d="M388.728,153.698
			c0,0.921-0.746,1.667-1.667,1.667c-0.92,0-1.667-0.746-1.667-1.667c0-0.92,0.746-1.667,1.667-1.667
			C387.982,152.032,388.728,152.778,388.728,153.698z"/>
		<path style="fill:none;stroke:#263238;stroke-linecap:round;stroke-linejoin:round;stroke-miterlimit:10;" d="M126.206,78.826
			c0,0.921-0.746,1.667-1.667,1.667c-0.92,0-1.667-0.746-1.667-1.667c0-0.92,0.746-1.667,1.667-1.667
			C125.46,77.159,126.206,77.905,126.206,78.826z"/>
		<path style="fill:none;stroke:#263238;stroke-linecap:round;stroke-linejoin:round;stroke-miterlimit:10;" d="M262.283,371.885
			c0,0.921-0.746,1.667-1.667,1.667s-1.667-0.746-1.667-1.667c0-0.92,0.746-1.667,1.667-1.667S262.283,370.965,262.283,371.885z"/>
	</g>
</g>
<g id="Device">
	<g>
		<g>
			<g>
				<path style="fill:#FFFFFF;stroke:#263238;stroke-linecap:round;stroke-linejoin:round;stroke-miterlimit:10;" d="
					M248.198,376.391l-3.327-26.777h-13.01h-27.878h-13.01l-3.327,26.777c-0.047,0.527-0.106,1.052-0.178,1.574
					c-1.281,9.286-7.238,17.274-15.505,21.693l-14.444,7.723h46.464h27.878h46.464l-14.444-7.723
					c-8.267-4.42-14.225-12.407-15.505-21.693C248.304,377.443,248.244,376.918,248.198,376.391z"/>
				<polygon style="fill:#263238;stroke:#263238;stroke-linecap:round;stroke-linejoin:round;stroke-miterlimit:10;" points="
					246.377,366.607 244.871,349.614 231.861,349.614 203.983,349.614 190.973,349.614 189.467,366.607 				"/>
				
					<rect x="157.519" y="407.381" style="fill:#FFFFFF;stroke:#263238;stroke-linecap:round;stroke-linejoin:round;stroke-miterlimit:10;" width="120.64" height="3.169"/>
				<g>
					
						<line style="fill:none;stroke:#263238;stroke-linecap:round;stroke-linejoin:round;stroke-miterlimit:10;" x1="192.245" y1="389.076" x2="236.209" y2="389.076"/>
					
						<line style="fill:none;stroke:#263238;stroke-linecap:round;stroke-linejoin:round;stroke-miterlimit:10;" x1="247.54" y1="389.076" x2="242.102" y2="389.076"/>
				</g>
			</g>
			<path style="fill:#FFFFFF;stroke:#263238;stroke-linecap:round;stroke-linejoin:round;stroke-miterlimit:10;" d="
				M353.074,355.037H82.771c-5.632,0-10.198-4.566-10.198-10.198V128.41c0-4.389,3.558-7.948,7.947-7.948h274.805
				c4.389,0,7.948,3.558,7.948,7.948v216.429C363.272,350.471,358.706,355.037,353.074,355.037z"/>
			<path style="fill:#263238;stroke:#263238;stroke-linecap:round;stroke-linejoin:round;stroke-miterlimit:10;" d="M363.272,316.16
				V129.018c0-4.725-3.831-8.556-8.556-8.556H81.128c-4.725,0-8.556,3.831-8.556,8.556V316.16H363.272z"/>
			
				<rect x="85.655" y="129.684" style="fill:#92E3A9;stroke:#263238;stroke-linecap:round;stroke-linejoin:round;stroke-miterlimit:10;" width="264.535" height="186.475"/>
		</g>
		<g>
			<path style="fill:#263238;stroke:#263238;stroke-linecap:round;stroke-linejoin:round;stroke-miterlimit:10;" d="
				M294.986,159.286H112.967v-10.723c0-3.539,2.869-6.408,6.408-6.408h169.203c3.539,0,6.408,2.869,6.408,6.408V159.286z"/>
			<g>
				<path style="fill:#FFFFFF;stroke:#263238;stroke-linecap:round;stroke-linejoin:round;stroke-miterlimit:10;" d="
					M261.352,150.729c0,1.457-1.181,2.638-2.638,2.638s-2.638-1.181-2.638-2.638c0-1.457,1.181-2.638,2.638-2.638
					S261.352,149.272,261.352,150.729z"/>
				<path style="fill:#FFFFFF;stroke:#263238;stroke-linecap:round;stroke-linejoin:round;stroke-miterlimit:10;" d="
					M271.904,150.729c0,1.457-1.181,2.638-2.638,2.638s-2.638-1.181-2.638-2.638c0-1.457,1.181-2.638,2.638-2.638
					S271.904,149.272,271.904,150.729z"/>
				<path style="fill:#FFFFFF;stroke:#263238;stroke-linecap:round;stroke-linejoin:round;stroke-miterlimit:10;" d="
					M282.455,150.729c0,1.457-1.181,2.638-2.638,2.638c-1.457,0-2.638-1.181-2.638-2.638c0-1.457,1.181-2.638,2.638-2.638
					C281.274,148.091,282.455,149.272,282.455,150.729z"/>
			</g>
			<g>
				<path style="fill:none;stroke:#263238;stroke-linecap:round;stroke-linejoin:round;stroke-miterlimit:10;" d="M288.64,296.476
					H119.313c-3.505,0-6.345-2.841-6.345-6.345V148.564c0-3.539,2.869-6.408,6.408-6.408h169.203c3.539,0,6.408,2.869,6.408,6.408
					V290.13C294.986,293.635,292.145,296.476,288.64,296.476z"/>
				
					<line style="fill:none;stroke:#263238;stroke-width:0.25;stroke-linecap:round;stroke-linejoin:round;stroke-miterlimit:10;" x1="121.65" y1="155.4" x2="121.65" y2="297.019"/>
				
					<line style="fill:none;stroke:#263238;stroke-width:0.25;stroke-linecap:round;stroke-linejoin:round;stroke-miterlimit:10;" x1="132.669" y1="155.4" x2="132.669" y2="297.019"/>
				
					<line style="fill:none;stroke:#263238;stroke-width:0.25;stroke-linecap:round;stroke-linejoin:round;stroke-miterlimit:10;" x1="143.687" y1="155.4" x2="143.687" y2="297.019"/>
				
					<line style="fill:none;stroke:#263238;stroke-width:0.25;stroke-linecap:round;stroke-linejoin:round;stroke-miterlimit:10;" x1="154.706" y1="155.4" x2="154.706" y2="297.019"/>
				
					<line style="fill:none;stroke:#263238;stroke-width:0.25;stroke-linecap:round;stroke-linejoin:round;stroke-miterlimit:10;" x1="165.724" y1="155.4" x2="165.724" y2="297.019"/>
				
					<line style="fill:none;stroke:#263238;stroke-width:0.25;stroke-linecap:round;stroke-linejoin:round;stroke-miterlimit:10;" x1="176.743" y1="155.4" x2="176.743" y2="297.019"/>
				
					<line style="fill:none;stroke:#263238;stroke-width:0.25;stroke-linecap:round;stroke-linejoin:round;stroke-miterlimit:10;" x1="187.761" y1="155.4" x2="187.761" y2="297.019"/>
				
					<line style="fill:none;stroke:#263238;stroke-width:0.25;stroke-linecap:round;stroke-linejoin:round;stroke-miterlimit:10;" x1="198.779" y1="155.4" x2="198.779" y2="297.019"/>
				
					<line style="fill:none;stroke:#263238;stroke-width:0.25;stroke-linecap:round;stroke-linejoin:round;stroke-miterlimit:10;" x1="209.798" y1="155.4" x2="209.798" y2="297.019"/>
				
					<line style="fill:none;stroke:#263238;stroke-width:0.25;stroke-linecap:round;stroke-linejoin:round;stroke-miterlimit:10;" x1="220.816" y1="155.4" x2="220.816" y2="297.019"/>
				
					<line style="fill:none;stroke:#263238;stroke-width:0.25;stroke-linecap:round;stroke-linejoin:round;stroke-miterlimit:10;" x1="231.835" y1="155.4" x2="231.835" y2="297.019"/>
				
					<line style="fill:none;stroke:#263238;stroke-width:0.25;stroke-linecap:round;stroke-linejoin:round;stroke-miterlimit:10;" x1="242.853" y1="155.4" x2="242.853" y2="297.019"/>
				
					<line style="fill:none;stroke:#263238;stroke-width:0.25;stroke-linecap:round;stroke-linejoin:round;stroke-miterlimit:10;" x1="253.872" y1="155.4" x2="253.872" y2="297.019"/>
				
					<line style="fill:none;stroke:#263238;stroke-width:0.25;stroke-linecap:round;stroke-linejoin:round;stroke-miterlimit:10;" x1="264.89" y1="155.4" x2="264.89" y2="297.019"/>
				
					<line style="fill:none;stroke:#263238;stroke-width:0.25;stroke-linecap:round;stroke-linejoin:round;stroke-miterlimit:10;" x1="275.908" y1="155.4" x2="275.908" y2="297.019"/>
				
					<line style="fill:none;stroke:#263238;stroke-width:0.25;stroke-linecap:round;stroke-linejoin:round;stroke-miterlimit:10;" x1="286.927" y1="155.4" x2="286.927" y2="297.019"/>
				
					<line style="fill:none;stroke:#263238;stroke-width:0.25;stroke-linecap:round;stroke-linejoin:round;stroke-miterlimit:10;" x1="113.225" y1="169.684" x2="295.353" y2="169.684"/>
				
					<line style="fill:none;stroke:#263238;stroke-width:0.25;stroke-linecap:round;stroke-linejoin:round;stroke-miterlimit:10;" x1="113.225" y1="183.04" x2="295.353" y2="183.04"/>
				
					<line style="fill:none;stroke:#263238;stroke-width:0.25;stroke-linecap:round;stroke-linejoin:round;stroke-miterlimit:10;" x1="113.225" y1="196.396" x2="295.353" y2="196.396"/>
				
					<line style="fill:none;stroke:#263238;stroke-width:0.25;stroke-linecap:round;stroke-linejoin:round;stroke-miterlimit:10;" x1="113.225" y1="209.752" x2="295.353" y2="209.752"/>
				
					<line style="fill:none;stroke:#263238;stroke-width:0.25;stroke-linecap:round;stroke-linejoin:round;stroke-miterlimit:10;" x1="113.225" y1="223.108" x2="295.353" y2="223.108"/>
				
					<line style="fill:none;stroke:#263238;stroke-width:0.25;stroke-linecap:round;stroke-linejoin:round;stroke-miterlimit:10;" x1="113.225" y1="236.464" x2="295.353" y2="236.464"/>
				
					<line style="fill:none;stroke:#263238;stroke-width:0.25;stroke-linecap:round;stroke-linejoin:round;stroke-miterlimit:10;" x1="113.225" y1="249.821" x2="295.353" y2="249.821"/>
				
					<line style="fill:none;stroke:#263238;stroke-width:0.25;stroke-linecap:round;stroke-linejoin:round;stroke-miterlimit:10;" x1="113.225" y1="263.177" x2="295.353" y2="263.177"/>
				
					<line style="fill:none;stroke:#263238;stroke-width:0.25;stroke-linecap:round;stroke-linejoin:round;stroke-miterlimit:10;" x1="113.225" y1="276.533" x2="295.353" y2="276.533"/>
				
					<line style="fill:none;stroke:#263238;stroke-width:0.25;stroke-linecap:round;stroke-linejoin:round;stroke-miterlimit:10;" x1="113.225" y1="289.889" x2="295.353" y2="289.889"/>
			</g>
		</g>
	</g>
</g>
<g id="Character_2">
	<g>
		<g>
			<path style="fill:#FFFFFF;stroke:#263238;stroke-linecap:round;stroke-linejoin:round;stroke-miterlimit:10;" d="
				M372.882,209.499c0,0-4.629,3.968-4.629,4.794c0,0.827-1.323,9.424-1.323,9.424l6.282,2.645l2.645-4.464
				c0,0,1.323-1.819,2.315-3.472c0.992-1.653,3.307-3.472,3.307-3.472l-2.48-0.496l-2.976,3.141l-0.331-4.464L372.882,209.499z"/>
			<path style="fill:#FFFFFF;stroke:#263238;stroke-linecap:round;stroke-linejoin:round;stroke-miterlimit:10;" d="M366.93,223.717
				c0,0-9.093,10.581-11.904,14.218c-2.811,3.637-10.746,11.738-13.557,16.863c-2.81,5.125-2.149,11.408,0.331,13.391
				c2.48,1.984,12.234-2.315,16.367-10.746c4.133-8.432,15.045-31.081,15.045-31.081L366.93,223.717z"/>
		</g>
		<g>
			<g>
				<path style="fill:#FFFFFF;stroke:#263238;stroke-linecap:round;stroke-linejoin:round;stroke-miterlimit:10;" d="
					M377.842,190.155c0,0-1.323,4.794-2.315,6.944c-0.992,2.149-5.786,3.968-5.29,4.629c0.496,0.661,2.976,2.811,2.976,2.811
					s0.165,10.912,1.653,11.242c1.488,0.331,6.613-0.827,6.613-0.827l-0.992,7.605l12.73-1.819l1.157-10.746
					c0,0,5.621-4.299,5.621-8.432c0-4.133-6.613-12.4-12.896-14.053C380.818,185.857,379.66,187.014,377.842,190.155z"/>
				<path style="fill:#263238;" d="M377.935,197.756c-0.136,0.826-0.527,1.449-0.875,1.392c-0.348-0.057-0.52-0.773-0.384-1.599
					c0.136-0.826,0.527-1.449,0.875-1.392C377.899,196.214,378.071,196.93,377.935,197.756z"/>
				<path style="fill:none;stroke:#263238;stroke-linecap:round;stroke-linejoin:round;stroke-miterlimit:10;" d="M377.784,194.702
					c0-0.479,1.117-1.117,1.436,0.479"/>
				<path style="fill:none;stroke:#263238;stroke-linecap:round;stroke-linejoin:round;stroke-miterlimit:10;" d="M373.956,206.346
					c0,0,0.957,0.16,2.393-0.638"/>
			</g>
			<path style="fill:#263238;stroke:#263238;stroke-linecap:round;stroke-linejoin:round;stroke-miterlimit:10;" d="
				M384.786,178.913c0,0,2.48-4.464-2.149-3.472c-4.629,0.992-10.912,10.085-8.597,14.218c2.315,4.133,5.456,2.48,5.456,2.48
				s1.488,2.149,2.645,3.306c1.157,1.157,2.645,2.315,2.645,2.315s1.157,9.92,3.141,12.565c1.984,2.645,4.299,3.472,6.117,2.48
				c1.819-0.992,4.96-3.307,4.96-3.307s7.936-5.952,8.432-11.242c0.496-5.29,0.165-8.597-2.811-12.234
				c-2.976-3.637-7.44-5.29-7.44-5.29s1.323-4.464-2.645-4.794C390.572,175.607,384.786,178.913,384.786,178.913z"/>
			<path style="fill:#FFFFFF;stroke:#263238;stroke-linecap:round;stroke-linejoin:round;stroke-miterlimit:10;" d="
				M382.471,199.414c0,0,3.306-4.299,4.794-2.811c1.488,1.488,0.165,6.944-0.992,8.762s-3.968,0.331-4.133-0.496"/>
		</g>
		<polygon style="fill:#FFFFFF;stroke:#263238;stroke-linecap:round;stroke-linejoin:round;stroke-miterlimit:10;" points="
			373.543,227.519 378.668,221.567 396.644,219.659 398.012,225.37 		"/>
		<path style="fill:#FFFFFF;stroke:#263238;stroke-linecap:round;stroke-linejoin:round;stroke-miterlimit:10;" d="M406.233,293.074
			l-2.279-3.212l-0.12,15.493c0,0,4.676-4.453,4.899-6.903C408.956,296.003,406.233,293.074,406.233,293.074z"/>
		<path style="fill:#FFFFFF;stroke:#263238;stroke-linecap:round;stroke-linejoin:round;stroke-miterlimit:10;" d="M412.561,229.999
			c0,0,18.847,38.356,20.17,41.001c1.323,2.645-1.488,3.637-1.488,3.637l-22.509,23.815l-2.5-5.378l9.634-23.561l-8.762-14.053
			C407.105,255.46,411.899,231.487,412.561,229.999z"/>
		<polygon style="fill:#263238;stroke:#263238;stroke-linecap:round;stroke-linejoin:round;stroke-miterlimit:10;" points="
			412.786,242.312 415.867,269.512 410.968,261.179 		"/>
		<path style="fill:#263238;stroke:#263238;stroke-linecap:round;stroke-linejoin:round;stroke-miterlimit:10;" d="M361.522,291.732
			c0,0-0.006,0.416-0.016,1.188c-0.105,8.069-0.649,55.016,0.736,71.788c1.517,18.377,4.361,45.75,4.361,45.75
			s-1.896,0.574-1.896,1.531s-0.569,3.828-0.569,3.828s-4.171,2.297-7.015,3.254c-2.844,0.957-5.119,2.871-3.792,3.828
			c1.327,0.957,7.584,1.723,13.841,2.488c6.257,0.766,10.997,0.957,11.755,0.191c0.758-0.766,0.569-4.977,0.379-6.508
			c-0.19-1.531,0.19-4.594,0-7.083c-0.19-2.488-1.138-4.594-1.138-6.125s0.948-47.473,0.948-47.473l2.844-17.228l2.655-10.911
			c0,0,1.517,28.139,2.086,29.479c0.569,1.34,10.256,51.665,10.256,51.665l-1.138,1.914l0.19,2.488c0,0-2.086,2.106-4.74,3.446
			c-2.654,1.34-5.119,2.106-3.223,3.637c1.896,1.531,9.67,1.914,11.376,2.106c1.706,0.191,7.774,0.383,8.532,0.191
			c0.758-0.191,1.896,0,2.086-2.68c0.19-2.68-0.569-5.551-0.758-6.317c-0.19-0.766-0.758-3.446-0.948-5.934
			c-0.19-2.488-0.758-4.977-0.758-4.977l-2.861-50.325l0.948-49.387c0,0,0-4.594-0.569-8.614c-0.569-4.02-1.138-7.083-1.138-7.083
			l-41.713-1.723"/>
		<g>
			<path style="fill:#FFFFFF;stroke:#263238;stroke-linecap:round;stroke-linejoin:round;stroke-miterlimit:10;" d="
				M343.784,258.766l11.904-13.722c0,0,8.432-14.383,9.093-15.706c0.661-1.323,8.762-1.819,8.762-1.819l24.468-2.149
				c0,0,14.218,3.472,14.549,4.629c0.331,1.157-0.642,24.918-1.138,28.225c-0.496,3.307-6.467,34.269-6.963,36.087
				c-0.496,1.819-7.44,2.81-19.013,3.472c-11.573,0.661-21.493-3.472-22.319-4.133c-0.827-0.661-1.653-1.323-1.488-2.48
				c0.165-1.157,2.645-29.263,2.645-29.263s-12.565,8.762-15.541,9.424c-2.976,0.661-8.101-2.315-8.762-6.448
				c-0.661-4.133,1.819-6.282,1.819-6.282"/>
			<g>
				<path style="fill:none;stroke:#263238;stroke-linecap:round;stroke-linejoin:round;stroke-miterlimit:10;" d="M398.99,243.751
					c0,0-10.031,19.644-14.629,25.496"/>
				
					<line style="fill:none;stroke:#263238;stroke-linecap:round;stroke-linejoin:round;stroke-miterlimit:10;" x1="394.81" y1="256.29" x2="389.376" y2="265.903"/>
			</g>
		</g>
		<polyline style="fill:none;stroke:#263238;stroke-linecap:round;stroke-linejoin:round;stroke-miterlimit:10;" points="
			375.527,250.996 364.285,261.907 374.205,257.609 		"/>
	</g>
</g>
<g id="Character_1">
	<g>
		<g>
			<polygon style="fill:#FFFFFF;stroke:#263238;stroke-linecap:round;stroke-linejoin:round;stroke-miterlimit:10;" points="
				206.276,316.091 232.363,316.091 233.247,267.087 222.701,202.451 192.505,202.848 206.808,273.173 			"/>
			<path style="fill:#263238;stroke:#263238;stroke-linecap:round;stroke-linejoin:round;stroke-miterlimit:10;" d="M225.441,270
				l6.836,46.09h36.295c-1.31-5.271-12.359-49.83-12.359-52.557c0-2.899-7.804-51.287-9.811-54.185
				c-2.007-2.899-28.988-14.048-28.988-14.048l2.676,15.609L225.441,270z"/>
			<path style="fill:none;stroke:#8C8C8C;stroke-linecap:round;stroke-linejoin:round;stroke-miterlimit:10;" d="M242.834,230.978
				c2.245,10.278,4.692,20.698,5.812,31.169c1.205,11.261-0.677,23.284-1.313,34.557c-0.253,4.489-0.067,8.775,0.217,13.275"/>
		</g>
		
			<ellipse style="fill:#828282;stroke:#263238;stroke-linecap:round;stroke-linejoin:round;stroke-miterlimit:10;" cx="182.826" cy="170.008" rx="13.717" ry="13.356"/>
		<path style="fill:#263238;stroke:#263238;stroke-linecap:round;stroke-linejoin:round;stroke-miterlimit:10;" d="M155.134,316.091
			h51.22c0.559-5.978,3.583-38.107,4.593-44.976c1.115-7.582-11.149-56.638-11.149-56.638l-9.365-21.407l-37.908,15.163
			l14.494,77.822L155.134,316.091z"/>
		<path style="fill:#FFFFFF;stroke:#263238;stroke-linecap:round;stroke-linejoin:round;stroke-miterlimit:10;" d="M192.032,186.93
			c0,0-1.603,0-3.207,1.96c-0.971,1.186-2.908,9.788-3.207,11.58c-0.535,3.207-1.247,26.724-1.247,26.724s17.46-8.908,18.172-8.908
			c0.713,0,8.552,3.385,8.552,3.385s2.494-0.356,3.207-0.891c0.713-0.535,4.988-6.414,4.988-6.414l15.143,9.62
			c0,0-11.402-26.546-14.075-30.821c-2.672-4.276-4.632-5.523-6.414-6.057C212.164,186.574,192.032,186.93,192.032,186.93z"/>
		<path style="fill:#FFFFFF;stroke:#263238;stroke-linecap:round;stroke-linejoin:round;stroke-miterlimit:10;" d="M191.498,163.414
			c0,0,1.96,15.143,1.247,20.132c-0.713,4.989-2.316,2.494-0.713,8.195c1.603,5.701,13.718,24.408,16.212,27.614
			c2.494,3.207,4.988,2.138,5.879-1.247c0.891-3.385,1.603-24.051,1.603-24.051l2.494-9.086L191.498,163.414z"/>
		<polygon style="fill:#263238;stroke:#263238;stroke-linecap:round;stroke-linejoin:round;stroke-miterlimit:10;" points="
			201.383,181.208 214.755,197.286 215.727,194.057 218.221,184.971 		"/>
		<g>
			<path style="fill:#FFFFFF;stroke:#263238;stroke-linecap:round;stroke-linejoin:round;stroke-miterlimit:10;" d="
				M233.434,147.689c0,0-0.342,14.429-0.18,17.503c0.162,3.074-0.162,8.575-2.427,13.266c-2.265,4.692-9.222,9.221-12.943,9.221
				c-3.721,0-11.163-2.75-16.502-6.471c-4.63-3.227-9.222-9.221-10.516-11.001c-1.294-1.78-3.236-9.222-3.236-9.222l-1.133-6.148
				l-1.132-5.015c0,0,10.192,0.324,15.693-5.339c5.501-5.662,17.149-16.825,17.149-16.825l13.59,13.752L233.434,147.689z"/>
			<path style="fill:none;stroke:#263238;stroke-linecap:round;stroke-linejoin:round;stroke-miterlimit:10;" d="M220.311,153.544
				c0,0-0.162,4.692,0.971,6.633c1.132,1.941,4.206,4.368,3.397,5.662c-0.809,1.294-5.501,1.456-5.986,1.132"/>
			<path style="fill:none;stroke:#263238;stroke-linecap:round;stroke-linejoin:round;stroke-miterlimit:10;" d="M209.957,170.207
				c0,0,2.75,5.177,9.707,4.368"/>
			<path style="fill:none;stroke:#263238;stroke-linecap:round;stroke-linejoin:round;stroke-miterlimit:10;" d="M215.134,150.632
				c0,0-4.692-3.236-10.03-0.647"/>
			<path style="fill:none;stroke:#263238;stroke-linecap:round;stroke-linejoin:round;stroke-miterlimit:10;" d="M222.415,149.661
				c0,0,4.368-4.045,8.089-0.485"/>
			<path style="fill:#263238;" d="M211.252,157.588c0,1.519-0.688,2.75-1.537,2.75c-0.849,0-1.537-1.231-1.537-2.75
				c0-1.519,0.688-2.75,1.537-2.75C210.564,154.838,211.252,156.069,211.252,157.588z"/>
			<path style="fill:#263238;" d="M228.239,157.103c0,1.519-0.688,2.75-1.537,2.75s-1.537-1.231-1.537-2.75
				c0-1.519,0.688-2.75,1.537-2.75S228.239,155.584,228.239,157.103z"/>
		</g>
		<path style="fill:#828282;stroke:#263238;stroke-linecap:round;stroke-linejoin:round;stroke-miterlimit:10;" d="M217.707,131.832
			c0,0-2.34,7.279-8.708,13.257c-6.369,5.979-15.987,7.799-15.987,7.799s0.52,2.469-0.13,3.379c-0.65,0.91-2.08,1.82-2.08,1.82
			s-3.769,0.65-7.279-3.119c-3.509-3.769-3.119-21.056,3.509-29.634c6.629-8.578,27.035-9.878,32.884-7.409
			c5.849,2.469,3.639,3.639,3.639,3.639s9.098,4.029,14.687,10.528c5.589,6.499-4.809,15.597-4.809,15.597L217.707,131.832z"/>
		<g>
			<path style="fill:#263238;stroke:#263238;stroke-linecap:round;stroke-linejoin:round;stroke-miterlimit:10;" d="
				M184.881,154.352c0,0-1.78-23.782,12.134-35.268l6.148-1.618c0,0-14.075,13.266-15.208,37.372L184.881,154.352z"/>
			<path style="fill:#263238;stroke:#263238;stroke-linecap:round;stroke-linejoin:round;stroke-miterlimit:10;" d="
				M193.501,159.454c2.128,4.13,1.117,8.888-2.259,10.628c-3.376,1.739-7.837-0.199-9.965-4.329
				c-2.128-4.13-1.117-8.888,2.259-10.628C186.911,153.386,191.373,155.324,193.501,159.454z"/>
			<path style="fill:none;stroke:#263238;stroke-linecap:round;stroke-linejoin:round;stroke-miterlimit:10;" d="M190.058,165.677
				c0,0,9.545,12.457,21.193,16.825"/>
			<path style="fill:#263238;stroke:#263238;stroke-linecap:round;stroke-linejoin:round;stroke-miterlimit:10;" d="
				M214.111,183.324c-0.464,1.104-1.982,1.52-3.392,0.928c-1.41-0.592-2.177-1.966-1.714-3.071c0.464-1.104,1.982-1.52,3.392-0.928
				C213.807,180.844,214.574,182.219,214.111,183.324z"/>
		</g>
		<g>
			<path style="fill:#FFFFFF;stroke:#263238;stroke-linecap:round;stroke-linejoin:round;stroke-miterlimit:10;" d="
				M204.118,265.355c0,0,5.983-4.251,6.456-4.724c0.472-0.472,4.409-5.826,5.511-7.4c1.102-1.575,3.149-2.992,4.566-4.251
				c1.417-1.26,3.779-4.094,4.881-5.983c1.102-1.889,2.519-3.622,2.992-1.575c0.472,2.047-0.787,4.409-1.26,5.826
				c-0.472,1.417-2.047,3.936-2.047,3.936s5.826-3.621,9.29-4.251c3.464-0.63,7.873-0.63,8.03,0.472
				c0.157,1.102-0.945,1.417-2.519,2.047c-1.575,0.63-5.826,2.204-7.4,2.834c-1.575,0.63-5.826,3.779-5.826,3.779
				s8.03-1.889,9.762-2.362c1.732-0.472,5.983-0.63,6.928-0.63c0.945,0,1.732,1.732,0.472,2.677
				c-1.26,0.945-3.779,2.204-3.779,2.204s-0.945,1.574-2.362,3.149c-1.417,1.575-2.992,3.621-4.566,5.983
				c-1.574,2.362-3.936,4.094-6.456,5.354c-2.519,1.26-13.226,2.362-13.226,2.362l-7.243,3.621L204.118,265.355z"/>
			<path style="fill:none;stroke:#263238;stroke-linecap:round;stroke-linejoin:round;stroke-miterlimit:10;" d="M240.175,257.955
				c0,0-9.762,2.362-11.967,3.936"/>
			<path style="fill:none;stroke:#263238;stroke-linecap:round;stroke-linejoin:round;stroke-miterlimit:10;" d="M234.979,264.41
				c0,0-5.511,2.677-6.141,2.834"/>
		</g>
		<g>
			<path style="fill:#263238;stroke:#263238;stroke-linecap:round;stroke-linejoin:round;stroke-miterlimit:10;" d="
				M166.573,203.328c0,0-16.278,4.014-16.724,6.467c-0.446,2.453-12.041,77.599-12.71,80.944c-0.669,3.345-1.561,8.919,0.669,9.365
				c2.23,0.446,68.902-20.292,68.902-20.292l-3.222-16.031l-34.908,3.99l5.129-31.441"/>
			
				<line style="fill:none;stroke:#8C8C8C;stroke-linecap:round;stroke-linejoin:round;stroke-miterlimit:10;" x1="166.508" y1="268.035" x2="150.733" y2="268.859"/>
			<polyline style="fill:none;stroke:#8C8C8C;stroke-linecap:round;stroke-linejoin:round;stroke-miterlimit:10;" points="
				197.209,265.392 166.508,268.035 173.168,242.374 			"/>
		</g>
	</g>
</g>
<g id="Speech_Bubble">
	<g>
		<path style="fill:#263238;stroke:#263238;stroke-linecap:round;stroke-linejoin:round;stroke-miterlimit:10;" d="M317.518,60.27
			h-71.795c-3.586,0-6.493,2.907-6.493,6.493v36.806c0,3.586,2.907,6.493,6.493,6.493h12.666l-9.066,21.531l23.277-21.531h44.917
			c3.586,0,6.493-2.907,6.493-6.493V66.763C324.011,63.177,321.104,60.27,317.518,60.27z"/>
		<path style="fill:#FFFFFF;stroke:#263238;stroke-linecap:round;stroke-linejoin:round;stroke-miterlimit:10;" d="M314.506,58.119
			h-71.795c-3.586,0-6.493,2.907-6.493,6.493v36.806c0,3.586,2.907,6.493,6.493,6.493h12.666l-9.066,21.531l23.277-21.531h44.917
			c3.586,0,6.493-2.907,6.493-6.493V64.611C320.999,61.026,318.092,58.119,314.506,58.119z"/>
		<g>
			<circle style="fill:#263238;" cx="262.388" cy="83.014" r="3.364"/>
			<circle style="fill:#263238;" cx="278.608" cy="83.014" r="3.364"/>
			<circle style="fill:#263238;" cx="294.829" cy="83.014" r="3.364"/>
		</g>
	</g>
</g>
</svg>
