<?xml version="1.0" encoding="utf-8"?>
<!-- Generator: Adobe Illustrator 27.5.0, SVG Export Plug-In . SVG Version: 6.00 Build 0)  -->
<svg version="1.1" xmlns="http://www.w3.org/2000/svg" xmlns:xlink="http://www.w3.org/1999/xlink" x="0px" y="0px"
	 viewBox="0 0 500 500" style="enable-background:new 0 0 500 500;" xml:space="preserve">
<g id="Background_Simple">
	<g>
		<path style="fill:#92E3A9;" d="M349.011,444.022c0,0,80.18-66.18,99.138-169.358c18.958-103.178-58.712-123.937-104.256-158.875
			s-62.294-74.271-128.312-76.65c-66.018-2.378-100.182,24.211-124.044,75.709C67.676,166.346,54.92,219.222,47.402,270.824
			c-7.518,51.602-3.855,92.813,38.511,113.348c42.366,20.535,62.037,11.506,82.155,35.17
			C188.186,443.005,280.032,496.543,349.011,444.022z"/>
		<path style="opacity:0.7;fill:#FFFFFF;" d="M349.011,444.022c0,0,80.18-66.18,99.138-169.358
			c18.958-103.178-58.712-123.937-104.256-158.875s-62.294-74.271-128.312-76.65c-66.018-2.378-100.182,24.211-124.044,75.709
			C67.676,166.346,54.92,219.222,47.402,270.824c-7.518,51.602-3.855,92.813,38.511,113.348
			c42.366,20.535,62.037,11.506,82.155,35.17C188.186,443.005,280.032,496.543,349.011,444.022z"/>
	</g>
</g>
<g id="Hand_3">
	<g>
		<g>
			<path style="fill:#FFFFFF;stroke:#263238;stroke-linecap:round;stroke-linejoin:round;stroke-miterlimit:10;" d="
				M372.643,464.874c0,0-5.859-50.453-5.288-54.577c0.571-4.125,6.264-28.224,8.648-33.544c2.385-5.32,6.363-17.044,7.831-26.426
				c1.468-9.382,0.986-11.971,1.31-13.103c0.325-1.132,0.624-20.53-0.744-26.437c-1.368-5.907-4.801-16.573-4.801-16.573
				s-0.44-10.42-8.868-24.603c-8.428-14.183-8.443-14.555-13.438-18.072c-4.995-3.517-9.943-5.917-14.812-6.457
				s-9.288,0.765-7.516,7.4c1.771,6.636,9.109,12.663,9.109,12.663s4.858,9.115,6.861,12.385c2.002,3.271,3.664,7.301,3.664,7.301
				l0.424,10.047l-3.098,6.095c0,0-4.67-4.649-6.766-10.152c-2.096-5.503-10.095-0.692-12.71,7.993
				c-2.615,8.685-40.667,34.524-39.001,47.501c1.667,12.977,2.631,44.624,8.841,59.273c6.211,14.649,7.809,17.192,7.809,17.192
				l-0.965,47.758"/>
			<path style="fill:#263238;stroke:#263238;stroke-linecap:round;stroke-linejoin:round;stroke-miterlimit:10;" d="
				M294.748,351.881c0,0,3.3,12.399,9.802,16.4c6.501,4.001,14.253,1.75,14.253,1.75l7.252,4.501l28.257-37.759
				c0,0,6.001-18.254,5.501-24.756c-0.5-6.501-1-10.503-2-11.253c-1-0.75-8.252-3.751-8.252-3.751l-2.751-3.251l-3.44-6.423
				c0,0-3.562,12.175-13.064,21.677c-9.502,9.502-28.257,23.506-32.008,31.257C294.548,348.027,293.498,346.38,294.748,351.881z"/>
			<path style="fill:none;stroke:#263238;stroke-linecap:round;stroke-linejoin:round;stroke-miterlimit:10;" d="M345.65,264.55
				c0,0,5.675,2.771,11.962-1.895"/>
		</g>
		<g>
			<g>
				<path style="fill:#92E3A9;stroke:#263238;stroke-linecap:round;stroke-linejoin:round;stroke-miterlimit:10;" d="
					M345.312,329.089l-10.284,12.398c-0.566,0.682-1.673,0.214-1.578-0.668l1.521-16.009l54.472-131.644
					c0.391-0.945,1.474-1.394,2.419-1.003l6.918,2.863c0.945,0.391,1.394,1.474,1.003,2.419L345.312,329.089z"/>
				<path style="fill:#D4D4D4;stroke:#263238;stroke-linecap:round;stroke-linejoin:round;stroke-miterlimit:10;" d="
					M393.529,212.564l6.256-15.118c0.391-0.945-0.058-2.028-1.003-2.419l-6.918-2.863c-0.945-0.391-2.028,0.058-2.419,1.003
					l-6.256,15.118L393.529,212.564z"/>
				
					<rect x="386.125" y="201.487" transform="matrix(0.3823 -0.924 0.924 0.3823 49.3774 488.0345)" style="fill:#FFFFFF;stroke:#263238;stroke-linecap:round;stroke-linejoin:round;stroke-miterlimit:10;" width="7.233" height="11.191"/>
				<path style="fill:#FFFFFF;stroke:#263238;stroke-linecap:round;stroke-linejoin:round;stroke-miterlimit:10;" d="
					M334.968,324.846l-1.518,15.974c-0.096,0.882,1.012,1.35,1.578,0.668l10.262-12.371L334.968,324.846z"/>
			</g>
			<path style="fill:#263238;stroke:#263238;stroke-linecap:round;stroke-linejoin:round;stroke-miterlimit:10;" d="
				M334.119,333.782l-0.669,7.038c-0.096,0.881,1.012,1.35,1.578,0.667l4.526-5.457L334.119,333.782z"/>
		</g>
		<g>
			<path style="fill:#FFFFFF;stroke:#263238;stroke-linecap:round;stroke-linejoin:round;stroke-miterlimit:10;" d="
				M320.286,360.335c0,0,0.059,1.387-0.798,3.044s-3.533,4.086-7.231,4.242c-3.699,0.156-9.634-3.298-13.769-7.987
				c-4.135-4.688-5.352-11.584-7.176-16.37c-1.823-4.786-2.018-9.409,1.426-15.576c3.445-6.166,10.949-3.936,10.949-3.936
				s5.375,17.604,7.651,22.139C313.615,350.428,320.286,360.335,320.286,360.335z"/>
			<path style="fill:none;stroke:#263238;stroke-linecap:round;stroke-linejoin:round;stroke-miterlimit:10;" d="M308.721,366.15
				c0,0-2.478-3.832-1.312-3.65c1.165,0.182,4.854-0.205,6.424-1.429c1.569-1.224,1.569-1.224,2.764-0.348
				c1.195,0.876,2.891,2.657,2.891,2.657"/>
			<path style="fill:none;stroke:#263238;stroke-linecap:round;stroke-linejoin:round;stroke-miterlimit:10;" d="M304.553,352.816
				l-3.128,3.142c0,0,4.934-1.964,6.644-3.04"/>
		</g>
		<g>
			<path style="fill:#FFFFFF;stroke:#263238;stroke-linecap:round;stroke-linejoin:round;stroke-miterlimit:10;" d="
				M318.558,302.978c0,0-6.176-3.676-11.701,2.579c-5.525,6.254-4.819,12.014-1.827,22.54c2.992,10.526,6.388,19.646,8.585,22.332
				c2.198,2.686,6.489,11.073,11.343,10.868c0,0,8.224-2.663,9.647-7.355c1.423-4.692-1.198-6.434-1.198-6.434l-3.51-6.336
				l-1.371-5.037c0,0-4.63-10.92-6.03-16.65C321.097,313.754,318.558,302.978,318.558,302.978z"/>
			<path style="fill:none;stroke:#263238;stroke-linecap:round;stroke-linejoin:round;stroke-miterlimit:10;" d="M323.713,343.228
				c0,0-3.922,2.172-5.413,2.486"/>
			<path style="fill:none;stroke:#263238;stroke-linecap:round;stroke-linejoin:round;stroke-miterlimit:10;" d="M320.405,342.114
				c0,0-3.974,0.92-4.913,2.465"/>
			<path style="fill:none;stroke:#263238;stroke-linecap:round;stroke-linejoin:round;stroke-miterlimit:10;" d="M329.5,353.693
				c0,0-6.463,0.505-6.586,3.057c-0.124,2.553,2.631,1.973,2.631,1.973"/>
		</g>
		<g>
			<path style="fill:#FFFFFF;stroke:#263238;stroke-linecap:round;stroke-linejoin:round;stroke-miterlimit:10;" d="
				M343.377,298.456c0,0,1.634-5.164-0.006-11.115c-1.641-5.952-5.004-8.82-8.934-8.654c-3.93,0.166-10.191-0.033-12.883,7.491
				c-2.693,7.524-2.803,15.865-2.992,22.358c-0.189,6.492,1.231,12.685,2.715,14.938c1.485,2.253,10.181,16.243,11.174,17.822
				c0.993,1.579,4.48,1.895,8.341,0.111c3.861-1.784,6.238-5.821,6.111-8.826c-0.127-3.005-4.913-17.624-4.913-17.624
				s0.635-1.416,1.153-5.606C343.66,305.159,343.377,298.456,343.377,298.456z"/>
			<path style="fill:none;stroke:#263238;stroke-linecap:round;stroke-linejoin:round;stroke-miterlimit:10;" d="M330.125,335.604
				c0,0-1.1-4.122,3.435-6.398c4.535-2.276,10.301,8.133,10.301,8.133"/>
			<path style="fill:none;stroke:#263238;stroke-linecap:round;stroke-linejoin:round;stroke-miterlimit:10;" d="M328.402,313.97
				c-1.858,0.724-3.794,1.861-4.828,3.617"/>
			<path style="fill:none;stroke:#263238;stroke-linecap:round;stroke-linejoin:round;stroke-miterlimit:10;" d="M333.098,312.784
				c0,0-0.876,0.094-2.117,0.389"/>
			<path style="fill:none;stroke:#263238;stroke-linecap:round;stroke-linejoin:round;stroke-miterlimit:10;" d="M326.59,317.691
				c0,0,3.881-1.322,5.681-2.556"/>
		</g>
		<g>
			<path style="fill:#FFFFFF;stroke:#263238;stroke-linecap:round;stroke-linejoin:round;stroke-miterlimit:10;" d="
				M320.236,392.063c0,0,2.165-20.007,7.821-34.14c5.655-14.133,13.492-20.485,16.168-22.914s5.756-6.264,5.756-6.264l4.493-8.758
				c0,0,0.541-14.612,0.355-19.004c-0.186-4.392,0.811-13.697,6.834-24.604c6.023-10.907,10.386-11.786,13.121-12.828
				c2.735-1.042,8.602,0.795,10.318,3.038c1.716,2.243-5.952,18.083-5.727,23.399c0.224,5.317-1.387,16.5-1.892,26.479
				c-0.505,9.979,0.121,15.009-1.596,30.491c-1.717,15.482-3.521,28.894-3.521,28.894"/>
			<g>
				<path style="fill:none;stroke:#263238;stroke-linecap:round;stroke-linejoin:round;stroke-miterlimit:10;" d="M382.625,265.239
					c0,0-5.29-0.529-6.718,1.287c-1.428,1.816-5.283,11.511-3.685,13.701c1.598,2.19,5.646,3.022,6.877,2.469"/>
				<path style="fill:none;stroke:#263238;stroke-linecap:round;stroke-linejoin:round;stroke-miterlimit:10;" d="M377.239,298.075
					c0,0-4.288-0.571-6.009,0.254"/>
				<path style="fill:none;stroke:#263238;stroke-linecap:round;stroke-linejoin:round;stroke-miterlimit:10;" d="M369.04,299.926
					c0,0,3.579,1.605,7.053,0.705"/>
				<path style="fill:none;stroke:#263238;stroke-linecap:round;stroke-linejoin:round;stroke-miterlimit:10;" d="M367.76,305.247
					c0,0,1.368,2.701,6.344,1.739"/>
			</g>
		</g>
	</g>
</g>
<g id="Hand_2">
	<g>
		<g>
			<path style="fill:#FFFFFF;stroke:#263238;stroke-linecap:round;stroke-linejoin:round;stroke-miterlimit:10;" d="M369.91,106.131
				c0,0-56.459-6.833-63.651-9.647c-7.192-2.815-72.229-36.901-76.294-38.465c-4.065-1.564-10.319,0-12.508,1.25
				c-2.189,1.251-12.508,4.69-17.511,7.191c-5.003,2.501-30.019,12.506-35.022,15.32c-5.003,2.814-7.192,8.13-7.505,11.256
				c-0.313,3.127-7.193,27.829-5.943,32.832c1.25,5.003,3.438,21.263,5.314,25.641c1.876,4.378,4.065,3.44,6.254,3.127
				c2.189-0.313,9.381-4.064,9.381-4.064s2.814,10.631,5.94,15.635s6.878,13.446,10.631,13.446c3.752,0,6.879-3.439,6.879-3.439
				s19.699,6.88,24.702,7.818c5.003,0.938,8.442,0.001,9.693-2.188c1.251-2.189-0.312-7.505-0.312-7.505s15.009,0.001,14.384-7.191
				c-0.625-7.192-4.064-9.693-6.253-10.632c-2.189-0.938-8.755-1.877-8.755-1.877l14.384,0.001c0,0,12.195,3.753,27.203,9.695
				c15.009,5.942,27.829,7.819,45.027,5.006s20.012-5.315,23.139-5.314s106.428,23.311,106.428,23.311"/>
			<g>
				<path style="fill:#263238;stroke:#263238;stroke-linecap:round;stroke-linejoin:round;stroke-miterlimit:10;" d="
					M214.859,161.284c0.056,0.026,0.111,0.05,0.165,0.075C214.961,161.33,214.905,161.305,214.859,161.284z"/>
				<path style="fill:#263238;stroke:#263238;stroke-linecap:round;stroke-linejoin:round;stroke-miterlimit:10;" d="
					M214.82,161.266c0.013,0.006,0.024,0.011,0.039,0.018C214.846,161.278,214.834,161.273,214.82,161.266z"/>
				<path style="fill:#263238;stroke:#263238;stroke-linecap:round;stroke-linejoin:round;stroke-miterlimit:10;" d="
					M214.715,161.219c0,0,0.007,0.003,0.02,0.009C214.728,161.225,214.723,161.222,214.715,161.219z"/>
				<path style="fill:#263238;stroke:#263238;stroke-linecap:round;stroke-linejoin:round;stroke-miterlimit:10;" d="
					M215.024,161.359c0.093,0.042,0.201,0.091,0.321,0.146C215.243,161.459,215.135,161.41,215.024,161.359z"/>
				<path style="fill:#263238;stroke:#263238;stroke-linecap:round;stroke-linejoin:round;stroke-miterlimit:10;" d="
					M214.735,161.228c0.03,0.014,0.056,0.025,0.085,0.039C214.783,161.249,214.752,161.235,214.735,161.228z"/>
				<path style="fill:#263238;stroke:#263238;stroke-linecap:round;stroke-linejoin:round;stroke-miterlimit:10;" d="
					M215.345,161.505c0.216,0.098,0.411,0.187,0.586,0.266C215.727,161.678,215.524,161.586,215.345,161.505z"/>
				<path style="fill:#263238;stroke:#263238;stroke-linecap:round;stroke-linejoin:round;stroke-miterlimit:10;" d="
					M217.114,162.309C217.261,162.376,217.29,162.389,217.114,162.309L217.114,162.309z"/>
				<path style="fill:#263238;stroke:#263238;stroke-linecap:round;stroke-linejoin:round;stroke-miterlimit:10;" d="
					M216.906,162.214c0.086,0.039,0.158,0.072,0.208,0.095C217.06,162.284,216.989,162.252,216.906,162.214z"/>
				<path style="fill:#263238;stroke:#263238;stroke-linecap:round;stroke-linejoin:round;stroke-miterlimit:10;" d="
					M216.738,162.138c0.06,0.027,0.116,0.053,0.168,0.076C216.856,162.192,216.8,162.166,216.738,162.138z"/>
				<path style="fill:#263238;stroke:#263238;stroke-linecap:round;stroke-linejoin:round;stroke-miterlimit:10;" d="
					M215.931,161.771c0.125,0.057,0.25,0.114,0.372,0.169C216.191,161.889,216.066,161.832,215.931,161.771z"/>
				<path style="fill:#263238;stroke:#263238;stroke-linecap:round;stroke-linejoin:round;stroke-miterlimit:10;" d="
					M216.302,161.94c0.173,0.078,0.315,0.143,0.435,0.198C216.607,162.078,216.458,162.011,216.302,161.94z"/>
				<path style="fill:#263238;stroke:#263238;stroke-linecap:round;stroke-linejoin:round;stroke-miterlimit:10;" d="
					M248.66,149.334c-3.309-0.735-6.342-0.818-8.973-0.581c-0.569-2.001-3.542-4.065-4.594-4.817
					c-1.806-1.29-31.47,2.838-35.597,5.933c-4.127,3.095-7.997,6.191-6.449,11.35l5.675,3.353c0,0,10.318-5.933,15.993-3.353
					c0,0,5.159-5.675,10.834-6.707l18.168,0.128c0,0,12.814,3.55,18.718,6.256c5.904,2.706,18.203-2.952,19.925-4.428
					C284.083,154.992,257.516,151.302,248.66,149.334z"/>
			</g>
			<g>
				<path style="fill:none;stroke:#263238;stroke-linecap:round;stroke-linejoin:round;stroke-miterlimit:10;" d="M197.704,160.346
					c0,0,3.358,12.07-1.826,15.871"/>
				<path style="fill:none;stroke:#263238;stroke-linecap:round;stroke-linejoin:round;stroke-miterlimit:10;" d="M186.398,177.531
					c0,0-0.452-2.94,0-5.653c0.452-2.713-2.714-6.783-2.714-6.783"/>
				<path style="fill:none;stroke:#263238;stroke-linecap:round;stroke-linejoin:round;stroke-miterlimit:10;" d="M206.297,178.888
					c0,0-2.713-5.653,1.131-6.105c3.844-0.452,13.793,2.261,13.793,2.261s-0.678,4.522,1.357,8.592"/>
				<path style="fill:none;stroke:#FFFFFF;stroke-linecap:round;stroke-linejoin:round;stroke-miterlimit:10;" d="M212.606,160.398
					c-2.681-0.977-4.726-1.634-4.726-1.634s-0.226-2.035-0.904-3.618c-0.678-1.583-2.341-2.693-2.341-2.693"/>
				<path style="fill:none;stroke:#263238;stroke-linecap:round;stroke-linejoin:round;stroke-miterlimit:10;" d="M229.961,174.341
					c0,0-2.184-5.628-5.801-8.568c-2.164-1.758-7.564-3.921-11.554-5.375"/>
				
					<line style="fill:none;stroke:#FFFFFF;stroke-linecap:round;stroke-linejoin:round;stroke-miterlimit:10;" x1="202.227" y1="158.085" x2="205.166" y2="158.537"/>
				<path style="fill:none;stroke:#263238;stroke-linecap:round;stroke-linejoin:round;stroke-miterlimit:10;" d="M224.16,165.773
					c0,0,0-2.713,4.749-2.939c4.749-0.226,10.175-1.583,11.08,0.226c0.904,1.809,2.035,6.105,0.904,7.688
					c-1.131,1.583-10.401,1.583-10.401,1.583"/>
				<path style="fill:none;stroke:#FFFFFF;stroke-linecap:round;stroke-linejoin:round;stroke-miterlimit:10;" d="M222.125,154.015
					c0,0-1.131-2.035-3.392-3.618c-2.261-1.583-3.618-2.035-3.618-2.035"/>
				<g>
					<path style="fill:none;stroke:#263238;stroke-linecap:round;stroke-linejoin:round;stroke-miterlimit:10;" d="M171.701,138.186
						c0,0,1.131-5.653,0-10.175c-1.131-4.522-1.809-7.01-1.809-7.01s3.392-3.618,5.201-7.236c1.809-3.618,4.748-9.949,4.748-9.949
						s9.723-2.261,14.698-3.618c4.975-1.357,10.628-4.975,10.628-4.975s1.131,3.618,2.714,5.653"/>
					<path style="fill:none;stroke:#263238;stroke-linecap:round;stroke-linejoin:round;stroke-miterlimit:10;" d="M186.896,120.524
						c1.155,0.774,2.498,1.438,4.024,1.834"/>
					<path style="fill:none;stroke:#263238;stroke-linecap:round;stroke-linejoin:round;stroke-miterlimit:10;" d="M181.65,114.896
						c0,0,1.002,1.86,2.965,3.77"/>
					<path style="fill:none;stroke:#263238;stroke-linecap:round;stroke-linejoin:round;stroke-miterlimit:10;" d="M205.089,86.521
						c-0.116-2.807,0.086-6.035,1.207-8.482"/>
					<path style="fill:none;stroke:#263238;stroke-linecap:round;stroke-linejoin:round;stroke-miterlimit:10;" d="M205.844,92.737
						c0,0-0.212-0.963-0.415-2.451"/>
					<path style="fill:none;stroke:#263238;stroke-linecap:round;stroke-linejoin:round;stroke-miterlimit:10;" d="M171.475,92.284
						c0,0,9.045,7.688,8.366,11.532"/>
					<path style="fill:none;stroke:#263238;stroke-linecap:round;stroke-linejoin:round;stroke-miterlimit:10;" d="M162.656,115.348
						c0,0,3.392-0.226,5.427,4.296"/>
				</g>
			</g>
		</g>
		<g>
			<polygon style="fill:#92E3A9;stroke:#263238;stroke-linecap:round;stroke-linejoin:round;stroke-miterlimit:10;" points="
				252.086,89.656 245.366,82.936 238.646,76.216 195.606,118.936 158.011,160.7 162.807,165.496 167.602,170.291 209.366,132.696 
							"/>
			<path style="fill:#92E3A9;stroke:#263238;stroke-linecap:round;stroke-linejoin:round;stroke-miterlimit:10;" d="M274.268,67.971
				c17.972-18.705,32.398-34.354,32.398-34.354l-5.99-5.991l-5.991-5.99c0,0-15.649,14.426-34.354,32.397
				s-25.918,25.429-25.918,25.429l7.213,7.213l7.213,7.213C248.839,93.889,256.297,86.676,274.268,67.971z"/>
			
				<line style="fill:none;stroke:#263238;stroke-linecap:round;stroke-linejoin:round;stroke-miterlimit:10;" x1="254.391" y1="82.82" x2="250.555" y2="86.745"/>
			
				<line style="fill:none;stroke:#263238;stroke-linecap:round;stroke-linejoin:round;stroke-miterlimit:10;" x1="302.5" y1="33.605" x2="257.634" y2="79.503"/>
			
				<line style="fill:none;stroke:#263238;stroke-linecap:round;stroke-linejoin:round;stroke-miterlimit:10;" x1="243.987" y1="92.716" x2="223.985" y2="113.315"/>
			<path style="fill:#263238;stroke:#263238;stroke-linecap:round;stroke-linejoin:round;stroke-miterlimit:10;" d="M236.475,77.368
				c-1.409,1.42-2.062,2.095-2.062,2.095l14.426,14.426c0,0,0.675-0.653,2.095-2.062L236.475,77.368z"/>
			
				<rect x="154.87" y="164.295" transform="matrix(0.7071 0.7071 -0.7071 0.7071 165.2735 -64.4866)" style="fill:#D4D4D4;stroke:#263238;stroke-linecap:round;stroke-linejoin:round;stroke-miterlimit:10;" width="11.218" height="5.929"/>
			<polygon style="fill:#D4D4D4;stroke:#263238;stroke-linecap:round;stroke-linejoin:round;stroke-miterlimit:10;" points="
				154.417,165.39 148.977,175.588 151.47,178.081 162.349,173.322 			"/>
			<polygon style="fill:#FFFFFF;stroke:#263238;stroke-linecap:round;stroke-linejoin:round;stroke-miterlimit:10;" points="
				149.486,176.296 148.07,179.128 150.801,177.611 			"/>
			<path style="fill:#FFFFFF;stroke:#263238;stroke-linecap:round;stroke-linejoin:round;stroke-miterlimit:10;" d="M306.512,26.757
				l-4.564-4.564c-1.386-1.386-3.633-1.386-5.018,0l-0.887,0.887l9.583,9.583l0.887-0.887
				C307.898,30.389,307.898,28.143,306.512,26.757z"/>
			<path style="fill:#FFFFFF;stroke:#263238;stroke-linecap:round;stroke-linejoin:round;stroke-miterlimit:10;" d="M293.738,22.716
				l-2.669-1.213L240.122,67.84c0,0,1.092,1.092,1.698,0.97s5.337-2.183,7.521-4.852c2.183-2.669,1.82-4.246,3.639-5.822
				C254.8,56.559,293.738,22.716,293.738,22.716z"/>
		</g>
		<g>
			<path style="fill:#FFFFFF;stroke:#263238;stroke-linecap:round;stroke-linejoin:round;stroke-miterlimit:10;" d="
				M241.218,109.302c0,0-21.888,9.693-37.21,13.133c-15.322,3.44-21.576,4.69-23.764,6.566c-2.189,1.876-11.882,12.195-16.572,17.51
				c-4.69,5.316-7.817,11.882,0.313,17.823c8.13,5.941,12.82,2.814,24.702-1.251c11.882-4.065,15.947-10.631,15.947-10.631
				s7.505-6.879,21.263-5.628c13.758,1.251,18.761,4.378,39.399,9.693c20.637,5.316,35.959-3.127,42.526-8.13"/>
			<path style="fill:#FFFFFF;stroke:#263238;stroke-linecap:round;stroke-linejoin:round;stroke-miterlimit:10;" d="
				M172.379,139.769c0,0,0.904,10.628,2.94,13.567c2.035,2.94,4.296,3.844,4.296,3.844s-2.939,5.427-7.236,6.784
				c-4.296,1.357-9.271-1.357-10.628-4.296c-1.357-2.939-0.904-6.557-0.452-7.688C161.751,150.849,172.379,139.769,172.379,139.769z
				"/>
			<path style="fill:#FFFFFF;stroke:#263238;stroke-linecap:round;stroke-linejoin:round;stroke-miterlimit:10;" d="
				M183.769,141.738c-1.927-4.996-2.532-9.69-2.532-9.69"/>
			<path style="fill:#FFFFFF;stroke:#263238;stroke-linecap:round;stroke-linejoin:round;stroke-miterlimit:10;" d="
				M187.557,148.682c-0.927-1.174-1.728-2.487-2.418-3.845"/>
			<path style="fill:#FFFFFF;stroke:#263238;stroke-linecap:round;stroke-linejoin:round;stroke-miterlimit:10;" d="
				M186.227,138.369c0,0,1.996,3.327,2.661,6.654"/>
		</g>
	</g>
</g>
<g id="Hand_1">
	<g>
		<g>
			<path style="fill:#FFFFFF;stroke:#263238;stroke-linecap:round;stroke-linejoin:round;stroke-miterlimit:10;" d="M82.157,469.738
				l4.159-22.349l9.253-54.041c0,0-3.23-19.511-5.832-27.187c-2.601-7.676-6.188-20.015-3.418-29.538
				c2.769-9.523,31.562-31.374,40.035-39.34c8.473-7.967,20.997-12.364,28.189-9.102c7.192,3.262,8.294,14.521,10.434,17.484
				c2.14,2.963,12.418,8.038,13.152,7.437c0.734-0.601,4.864-9.728,6.458-20.459c1.594-10.73,1.99-12.091,4.275-15.751
				c2.286-3.66,7.759-4.46,7.759-4.46s6.469-1.426,7.762,6.378c1.292,7.804-0.404,17.487-3.863,30.779
				c-3.458,13.292-9.936,30.844-11.277,33.355c-1.34,2.51-9.822,26.603-14.917,33.975c-5.095,7.372-20.114,15.979-21.244,17.94
				c-1.13,1.961-8.009,23.518-9.623,31.342c-1.614,7.824-1.549,38.219-1.549,38.219"/>
			<path style="fill:#263238;stroke:#263238;stroke-linecap:round;stroke-linejoin:round;stroke-miterlimit:10;" d="
				M112.571,358.625c0,0,6.429,0.877,8.475,0.585s3.215-1.169,6.722,1.169c3.507,2.338,7.891,6.429,11.982,5.553
				c4.091-0.877,8.475-1.753,12.567-6.722s0,0,0,0s0.292,4.091,4.091,4.384c3.799,0.292,14.612-17.242,11.69-23.964
				c-2.922-6.722-2.922-6.722-2.922-6.722s6.137,6.137,9.936,6.137c3.799,0-0.585-18.996-0.877-21.626
				c-0.292-2.63-12.274-9.936-16.073-13.151c-3.799-3.215-15.197-3.799-19.58-0.877c-4.384,2.922-20.165,36.823-22.503,41.791
				C113.74,350.15,108.48,355.995,112.571,358.625"/>
			<path style="fill:none;stroke:#263238;stroke-linecap:round;stroke-linejoin:round;stroke-miterlimit:10;" d="M147.444,399.377
				c1.417-1.725,3.071-3.737,3.071-3.737"/>
			<path style="fill:none;stroke:#263238;stroke-linecap:round;stroke-linejoin:round;stroke-miterlimit:10;" d="M114.593,409.464
				c0,0,9.179,4.654,15.048,2.493c3.869-1.424,9.757-5.687,13.727-8.922"/>
			<path style="fill:none;stroke:#263238;stroke-linecap:round;stroke-linejoin:round;stroke-miterlimit:10;" d="M148.227,386.6
				c0.199,1.153,0.267,2.307,0.154,3.432"/>
			<path style="fill:none;stroke:#263238;stroke-linecap:round;stroke-linejoin:round;stroke-miterlimit:10;" d="M140.852,372.528
				c0,0,4.639,5.287,6.66,11.299"/>
		</g>
		<g>
			<g>
				<path style="fill:#92E3A9;stroke:#263238;stroke-linecap:round;stroke-linejoin:round;stroke-miterlimit:10;" d="
					M205.609,335.269c-2.825,0.276-5.694-1.025-7.295-3.598l-75.529-125.027c-1.604-2.58-0.122-5.458,2.457-7.061
					c2.579-1.604,5.28-1.327,6.885,1.253l79.266,122.704c2.245,3.612,1.138,8.359-2.474,10.605
					C207.881,334.79,206.749,335.157,205.609,335.269z"/>
			</g>
			<g>
				<path style="fill:#FFFFFF;stroke:#263238;stroke-linecap:round;stroke-linejoin:round;stroke-miterlimit:10;" d="
					M217.178,347.348l-5.099-22.537l-0.07,0.048c-0.071-0.155-0.146-0.308-0.235-0.456c-1.668-2.77-5.944-3.254-9.551-1.082
					c-3.607,2.172-5.18,6.178-3.512,8.948c0.422,0.702,1.013,1.255,1.717,1.657L217.178,347.348z"/>
				<path style="fill:#92E3A9;stroke:#263238;stroke-linecap:round;stroke-linejoin:round;stroke-miterlimit:10;" d="
					M217.178,347.348l-3.149-13.515c-1.406-0.599-2.829-0.525-4.521,0.495c-1.723,1.038-2.749,2.681-2.846,4.229L217.178,347.348z"
					/>
			</g>
		</g>
		<g>
			<path style="fill:#FFFFFF;stroke:#263238;stroke-linecap:round;stroke-linejoin:round;stroke-miterlimit:10;" d="
				M129.622,285.066c0,0,6.988-8.767,7.602-9.778c0.614-1.011,11.903-16.856,14.355-18.522c2.452-1.666,7.984-1.019,7.984-1.019
				s21.985,13.303,23.301,14.601c1.316,1.298,5.946,4.886,7.682,8.045c1.736,3.159,11.974,15.471,11.212,19.825
				c-0.763,4.354-7.339,7.613-11.928,6.873c-4.59-0.74-10.651-6.804-12.599-9.704c-1.948-2.9-4.413-6.225-4.413-6.225l-6.445-2.698
				l-3.435-1.09c0,0-8.13-7.764-17.107-4.746C136.853,283.646,129.622,285.066,129.622,285.066z"/>
			<path style="fill:none;stroke:#263238;stroke-linecap:round;stroke-linejoin:round;stroke-miterlimit:10;" d="M194.229,284.452
				c0,0-1.999-0.993-4.618,1.403c-2.619,2.396-3.847,4.418-3.847,4.418s0.013,4.991,5.281,7.805c5.268,2.813,7.812,2.089,8.685,1.29
				"/>
			<path style="fill:none;stroke:#263238;stroke-linecap:round;stroke-linejoin:round;stroke-miterlimit:10;" d="M184.008,274.753
				c0,0-4.124,1.592-4.835,4.039"/>
			
				<line style="fill:none;stroke:#263238;stroke-linecap:round;stroke-linejoin:round;stroke-miterlimit:10;" x1="186.57" y1="276.642" x2="183.601" y2="277.884"/>
			<path style="fill:none;stroke:#263238;stroke-linecap:round;stroke-linejoin:round;stroke-miterlimit:10;" d="M158.805,257.723
				c0,0-4.124,1.592-5.708,4.838"/>
			<path style="fill:none;stroke:#263238;stroke-linecap:round;stroke-linejoin:round;stroke-miterlimit:10;" d="M157.502,261.417
				c0,0,2.521-0.96,3.819-2.276"/>
		</g>
		<g>
			<path style="fill:#FFFFFF;stroke:#263238;stroke-linecap:round;stroke-linejoin:round;stroke-miterlimit:10;" d="
				M105.795,306.417c0,0-1.541-6.031,0.164-10.477c1.705-4.446,20.388-10.316,20.388-10.316s17.793-7.684,24.788-9.082
				c6.996-1.398,15.236,9.922,15.236,9.922s15.76,17.716,18.243,23.655c2.483,5.939,1.531,10.787,1.48,12.694
				c-0.051,1.907,1.725,7.915,1.766,10.764c0.041,2.849-3.566,4.866-7.569,5.258c-4.003,0.392-6.962-3.123-8.887-5.788
				c-1.925-2.665-5.575-13.244-5.575-13.244l-8.291-9.412l-5.102-3.543l-4.096-0.55L105.795,306.417z"/>
			<path style="fill:none;stroke:#263238;stroke-linecap:round;stroke-linejoin:round;stroke-miterlimit:10;" d="M153.98,278.879
				c0,0-3.934,1.098-5.621,8.158"/>
			<path style="fill:none;stroke:#263238;stroke-linecap:round;stroke-linejoin:round;stroke-miterlimit:10;" d="M157.226,280.464
				c0,0-1.654,2.539-2.739,3.596"/>
			<path style="fill:none;stroke:#263238;stroke-linecap:round;stroke-linejoin:round;stroke-miterlimit:10;" d="M152.436,306.847
				c0,0-3.786-2.245-4.223-6.719"/>
			<path style="fill:none;stroke:#263238;stroke-linecap:round;stroke-linejoin:round;stroke-miterlimit:10;" d="M185.336,324.788
				c0,0-2.102,2.821-3.893,3.947c-1.792,1.126-3.842,2.04-3.842,2.04s-2.102,2.821,0.294,5.439"/>
		</g>
		<g>
			<path style="fill:#FFFFFF;stroke:#263238;stroke-linecap:round;stroke-linejoin:round;stroke-miterlimit:10;" d="M117.07,329.385
				l19.104,3.418l3.666-0.359l2.382,0.031c0,0,3.444,5.479,4.958,7.446c1.514,1.967,6.606,8.078,5.789,10.537
				c-0.817,2.459,2.34,7.702,5.055,11.137c2.715,3.435,7.172,0.356,7.913-2.889c0.74-3.245,1.998-3.897,3.837-6.72
				c1.839-2.824,2.579-6.068,1.204-12.014s-13.662-26.157-16.69-30.09c-3.028-3.934-4.255-5.664-20.33-5.149
				c-16.076,0.515-29.635-0.273-29.635-0.273s-7.594,0.743-9.936,6.523c-2.342,5.781-3.942,19.155-3.942,19.155
				s-4.158,4.583-4.737,9.631c-0.424,3.698-0.163,0.658-0.56,6.484"/>
			<path style="fill:none;stroke:#263238;stroke-linecap:round;stroke-linejoin:round;stroke-miterlimit:10;" d="M165.608,356.437
				c0,0-1.229,2.022-3.394,1.759s-3.648-0.832-3.648-0.832s-0.643,3.154,0.932,4.664"/>
			<path style="fill:none;stroke:#263238;stroke-linecap:round;stroke-linejoin:round;stroke-miterlimit:10;" d="M142.691,316.597
				c0,0,3.404-6.514,6.092-8.204"/>
			<path style="fill:none;stroke:#263238;stroke-linecap:round;stroke-linejoin:round;stroke-miterlimit:10;" d="M150.732,311.293
				c0,0-1.82,3.269-3.589,4.63"/>
			<path style="fill:none;stroke:#263238;stroke-linecap:round;stroke-linejoin:round;stroke-miterlimit:10;" d="M162.821,349.815
				c0,0,3.061-0.299,5.398-3.143"/>
		</g>
		<g>
			<g>
				<path style="fill:#FFFFFF;stroke:#263238;stroke-linecap:round;stroke-linejoin:round;stroke-miterlimit:10;" d="
					M97.445,361.177c0,0,8.189,2.636,13.118-1.019c4.93-3.654,6.819-5.954,6.819-5.954s6.489,1.48,8.297,1.039
					c1.807-0.441,1.807-0.441,1.807-0.441l7.244,3.785c0,0-1.423,4.369,1.139,6.233c2.562,1.864,9.108,1.224,12.99-2.328
					c3.882-3.552,5.101-10.016,4.11-12.034c-0.99-2.018-7.366-7.739-10.969-12.145c-3.603-4.406-5.852-5.772-8.809-6.276
					c-2.957-0.504-19.602-3.105-20.413-3.29c-0.811-0.185-2.172-0.581-2.172-0.581"/>
				<path style="fill:none;stroke:#263238;stroke-linecap:round;stroke-linejoin:round;stroke-miterlimit:10;" d="M117.382,354.204
					c0,0-9.401,1.184-12.558-4.059"/>
				<path style="fill:none;stroke:#263238;stroke-linecap:round;stroke-linejoin:round;stroke-miterlimit:10;" d="M103.243,355.587
					c0,0,6.72,3.837,11.937,0.418"/>
				<path style="fill:none;stroke:#263238;stroke-linecap:round;stroke-linejoin:round;stroke-miterlimit:10;" d="M134.73,358.587
					c0,0,1.591,2.752,5.729,1.819"/>
			</g>
			<path style="fill:none;stroke:#263238;stroke-linecap:round;stroke-linejoin:round;stroke-miterlimit:10;" d="M135.913,337.231
				c0,0-1.367,0.609-1.774,3.74c-0.407,3.13-0.412,5.508-0.412,5.508"/>
			
				<line style="fill:none;stroke:#263238;stroke-linecap:round;stroke-linejoin:round;stroke-miterlimit:10;" x1="136.66" y1="340.011" x2="135.782" y2="343.187"/>
		</g>
	</g>
</g>
</svg>
